<?xml version="1.0" encoding="UTF-8"?>
<!DOCTYPE svg PUBLIC "-//W3C//DTD SVG 1.1//EN" "http://www.w3.org/Graphics/SVG/1.1/DTD/svg11.dtd">
<svg version="1.1" xmlns="http://www.w3.org/2000/svg" xmlns:xlink="http://www.w3.org/1999/xlink" x="0" y="0" width="510" height="440" viewBox="0, 0, 510, 440">
  <defs>
    <linearGradient id="Gradient_1" gradientUnits="userSpaceOnUse" x1="132.711" y1="352.138" x2="373.996" y2="352.138">
      <stop offset="0" stop-color="#FFFFFE"/>
      <stop offset="0.552" stop-color="#99897D"/>
      <stop offset="1" stop-color="#FFFFFE"/>
    </linearGradient>
    <linearGradient id="Gradient_2" gradientUnits="userSpaceOnUse" x1="45.597" y1="324.933" x2="501.172" y2="324.933">
      <stop offset="0" stop-color="#FEF3DB"/>
      <stop offset="0.503" stop-color="#B7AA9F"/>
      <stop offset="1" stop-color="#FEF3DB"/>
    </linearGradient>
    <linearGradient id="Gradient_3" gradientUnits="userSpaceOnUse" x1="45.597" y1="324.933" x2="501.172" y2="324.933">
      <stop offset="0" stop-color="#C9BCAD"/>
      <stop offset="0.503" stop-color="#998B83"/>
      <stop offset="1" stop-color="#C9BCAD"/>
    </linearGradient>
    <linearGradient id="Gradient_4" gradientUnits="userSpaceOnUse" x1="253.354" y1="393.817" x2="253.354" y2="-20.849">
      <stop offset="0" stop-color="#FFFFFE"/>
      <stop offset="0.461" stop-color="#FFFFFE"/>
      <stop offset="1" stop-color="#B7AA9F"/>
    </linearGradient>
  </defs>
  <g id="Layer_1">
    <path d="M253.353,435.037 C212.241,435.037 175.924,420.902 154.142,399.318 C181.237,415.113 211.985,425.305 246.228,425.305 C247.507,425.305 248.792,425.291 250.081,425.262 L256.463,425.262 C257.754,425.291 259.034,425.305 260.314,425.305 C294.725,425.305 325.618,415.006 352.811,399.075 C331.059,420.796 294.625,435.037 253.353,435.037 z" fill="url(#Gradient_1)"/>
    <path d="M246.228,425.305 C211.985,425.305 181.237,415.113 154.142,399.318 C136.695,389.148 120.762,376.654 106.393,363.067 C62.774,321.821 33.526,270.487 19.893,243.373 C26.178,254.68 34.149,265.407 43.6,275.421 C54.259,289.341 116.923,362.981 249.562,362.985 C251.436,362.985 253.314,362.97 255.216,362.94 C381.611,360.967 441.504,315.506 468.017,270.003 C474.633,262.387 480.421,254.381 485.283,246.061 C473.005,270.087 449.765,310.387 416.293,346.694 C398.111,366.415 376.911,384.957 352.811,399.075 C325.618,415.006 294.725,425.305 260.314,425.305 C259.034,425.305 257.754,425.291 256.463,425.262 L250.081,425.262 C248.792,425.291 247.507,425.305 246.228,425.305 z M12.369,227.564 C11.503,225.612 11.066,224.56 11.066,224.56 L11.215,224.56 C11.586,225.562 11.973,226.568 12.369,227.564 z" fill="url(#Gradient_2)"/>
    <path d="M249.562,362.985 C116.923,362.981 54.259,289.341 43.6,275.421 C88.127,322.596 165.441,353.804 253.353,353.804 C344.597,353.804 424.415,320.194 468.017,270.003 C441.504,315.506 381.611,360.967 255.216,362.94 C253.314,362.97 251.436,362.985 249.562,362.985 z" fill="url(#Gradient_3)"/>
    <path d="M253.353,353.804 C165.441,353.804 88.127,322.596 43.6,275.421 C34.149,265.407 26.178,254.68 19.893,243.373 C17.029,238.22 14.512,232.941 12.369,227.564 C11.973,226.568 11.586,225.562 11.215,224.56 C6.192,210.987 3.526,196.776 3.526,182.129 C3.526,87.322 115.388,10.461 253.353,10.461 C391.326,10.461 503.181,87.322 503.181,182.129 C503.181,204.727 496.83,226.301 485.283,246.061 C480.421,254.381 474.633,262.387 468.017,270.003 C424.415,320.194 344.597,353.804 253.353,353.804 z M253.353,11.767 C185.826,11.772 124.652,30.398 80.217,60.665 C58.003,75.801 39.968,93.858 27.467,113.993 C14.966,134.122 8.013,156.349 8.016,179.68 C8.013,203.009 14.967,225.234 27.467,245.363 C46.223,275.565 77.408,301.093 116.52,319.101 C155.636,337.106 202.707,347.591 253.353,347.592 C320.881,347.587 382.057,328.959 426.493,298.692 C448.709,283.555 466.744,265.498 479.246,245.363 C491.747,225.234 498.701,203.009 498.698,179.68 C498.701,156.349 491.747,134.122 479.246,113.993 C460.488,83.791 429.302,58.263 390.189,40.256 C351.071,22.253 303.999,11.768 253.353,11.767 z M253.323,342.842 C186.681,342.843 126.388,324.411 82.892,294.766 C61.139,279.946 43.591,262.332 31.502,242.858 C19.413,223.379 12.768,202.058 12.766,179.68 C12.768,157.299 19.413,135.978 31.503,116.498 C49.631,87.286 80.063,62.263 118.506,44.571 C156.939,26.879 203.359,16.517 253.341,16.517 C253.348,16.517 253.347,16.517 253.353,16.517 C253.362,16.517 253.376,16.517 253.384,16.517 C320.027,16.517 380.321,34.947 423.819,64.59 C445.573,79.41 463.121,97.024 475.21,116.498 C487.3,135.978 493.945,157.299 493.948,179.68 C493.945,202.058 487.3,223.379 475.21,242.858 C457.081,272.069 426.648,297.094 388.203,314.786 C358.37,328.52 323.723,337.837 286.336,341.319 C287.551,340.724 288.845,339.819 289.987,338.443 C369.661,328.781 433.629,288.16 454.2,235.465 L455.429,235.745 L454.956,233.47 C459.023,222.405 461.181,210.827 461.181,198.902 C461.181,120.624 368.133,57.159 253.353,57.159 C138.574,57.159 45.526,120.624 45.526,198.902 C45.526,253.904 91.457,301.585 158.593,325.081 C162.157,328.941 166.382,331.38 173.937,331.38 C175.304,331.38 176.78,331.3 178.38,331.134 C201.636,337.271 226.921,340.638 253.353,340.638 C259.231,340.638 265.062,340.471 270.816,340.144 C272.683,340.978 274.619,341.665 276.553,342.092 C268.922,342.589 261.187,342.842 253.365,342.842 C253.358,342.842 253.36,342.842 253.353,342.842 C253.345,342.842 253.332,342.842 253.323,342.842 z" fill="url(#Gradient_4)"/>
    <path d="M496.323,179.68 L493.948,179.68 C493.945,202.058 487.3,223.379 475.21,242.858 C457.081,272.069 426.648,297.094 388.203,314.786 C349.764,332.482 303.343,342.844 253.353,342.842 C186.701,342.848 126.394,324.414 82.892,294.766 C61.139,279.946 43.591,262.332 31.502,242.858 C19.413,223.379 12.768,202.058 12.766,179.68 C12.768,157.299 19.413,135.978 31.503,116.498 C49.631,87.286 80.063,62.263 118.506,44.571 C156.943,26.876 203.364,16.515 253.353,16.517 C320.006,16.511 380.315,34.943 423.819,64.59 C445.573,79.41 463.121,97.024 475.21,116.498 C487.3,135.978 493.945,157.299 493.948,179.68 L498.698,179.68 C498.701,156.349 491.747,134.122 479.246,113.993 C460.488,83.791 429.302,58.263 390.189,40.256 C351.071,22.253 303.999,11.768 253.353,11.767 C185.826,11.772 124.652,30.398 80.217,60.665 C58.003,75.801 39.968,93.858 27.467,113.993 C14.966,134.122 8.013,156.349 8.016,179.68 C8.013,203.009 14.967,225.234 27.467,245.363 C46.223,275.565 77.408,301.093 116.52,319.101 C155.636,337.106 202.707,347.591 253.353,347.592 C320.881,347.587 382.057,328.959 426.493,298.692 C448.709,283.555 466.744,265.498 479.246,245.363 C491.747,225.234 498.701,203.009 498.698,179.68 L496.323,179.68" fill="#C76958"/>
    <path d="M461.181,198.902 C461.181,277.181 368.133,340.638 253.353,340.638 C138.574,340.638 45.526,277.181 45.526,198.902 C45.526,120.624 138.574,57.159 253.353,57.159 C368.133,57.159 461.181,120.624 461.181,198.902" fill="#8F6449"/>
    <path d="M189.941,289.145 C182.467,289.145 168.536,284.313 141.32,271.184 C139.643,270.375 138.411,269.781 137.788,269.499 C132.562,267.176 122.81,252.303 116.576,242.083 C107.328,242.78 97.234,244.027 94.481,245.074 C93.167,246.38 91.171,246.862 89.345,246.128 C86.911,245.148 85.73,242.387 86.703,239.945 C87.712,237.436 88.966,234.305 118.832,232.405 C120.643,232.338 122.291,233.177 123.204,234.698 C129.995,246.009 139.071,259.235 141.773,260.89 C142.315,261.12 143.644,261.758 145.447,262.626 C177.665,278.175 187.143,279.897 189.867,279.652 C194.208,273.077 205.675,267.903 217.112,263.161 C218.768,262.478 220.185,261.884 221.231,261.409 C226.961,257.943 251.825,219.587 249.375,202.955 C248.032,193.796 239.556,190.174 230.583,186.33 C224.037,183.532 217.269,180.63 213.565,175.212 C209.631,169.467 207.256,160.768 204.495,150.705 C201.705,140.507 198.543,128.951 193.429,120.72 C191.937,118.315 190.305,117.767 189.214,117.566 C182.007,116.26 169.598,125.604 162.97,130.636 C160.32,132.655 158.183,134.235 156.862,134.963 C153.166,136.974 150.501,147.684 155.118,162.55 C157.923,171.604 167.044,178.27 175.854,184.719 C181.354,188.734 186.549,192.534 190.23,196.913 C200.042,208.565 199.96,228.991 199.931,236.68 L199.931,237.719 C199.931,246.18 191.47,264.482 165.337,267.028 C158.628,267.673 154.012,266.434 151.28,263.22 C147.146,258.337 148.972,251.472 150.909,244.206 C152.416,238.572 154.116,232.189 152.453,228.041 C149.663,221.049 121.43,220.084 106.259,219.558 C96.395,219.216 87.875,218.927 82.175,217.784 C77.841,216.915 74.405,214.436 72.215,210.606 C65.216,198.346 73.128,174.759 74.048,172.109 C74.924,169.638 77.633,168.339 80.097,169.192 C82.576,170.054 83.882,172.763 83.021,175.241 C80.082,183.68 76.794,199.474 80.461,205.901 C81.292,207.349 82.391,208.143 84.038,208.469 C88.974,209.456 97.531,209.753 106.586,210.065 C130.974,210.903 156.179,211.772 161.278,224.515 C164.105,231.588 161.976,239.589 160.09,246.655 C159.222,249.913 157.604,255.977 158.532,257.067 C158.532,257.082 159.563,258.055 164.417,257.58 C185.8,255.487 190.431,241.155 190.431,237.719 L190.431,236.65 C190.46,229.911 190.527,212.017 182.972,203.036 C180.018,199.526 175.268,196.059 170.243,192.386 C160.654,185.372 149.781,177.423 146.041,165.355 C140.526,147.573 143.102,131.645 152.305,126.621 C153.374,126.034 155.081,124.706 157.226,123.073 C166.109,116.327 179.543,106.084 190.943,108.222 C195.307,109.031 198.966,111.621 201.504,115.703 C207.345,125.106 210.692,137.375 213.661,148.188 C216.088,157.05 218.374,165.422 221.402,169.853 C223.547,172.985 228.78,175.227 234.324,177.594 C244.276,181.854 256.656,187.153 258.779,201.574 C261.918,222.927 233.678,266.189 225.165,270.056 C224.044,270.568 222.523,271.199 220.749,271.934 C214.589,274.487 200.153,280.476 197.645,285.137 C196.324,287.594 194.164,289.145 189.941,289.145" fill="#E9D4AD"/>
    <path d="M308.09,163.173 C310.917,166.298 313.753,169.526 316.602,172.903 C330.267,189.098 358.425,190.137 380.297,183.97 C385.203,182.589 386.086,181.468 386.124,181.424 C385.811,180.674 382.731,177.134 380.49,174.544 C376.037,169.423 370.501,163.047 367.413,154.742 C362.225,140.782 349.972,139.854 335.714,140.077 L332.411,140.114 C324.618,140.114 312.09,155.232 308.09,163.173 M251.735,279.474 C254.073,280.253 256.411,280.907 258.66,281.478 C258.564,276.81 258.215,272.334 257.428,268.378 C255.112,256.823 253.732,256.978 244.625,258.055 C241.671,258.411 238.28,259.108 234.287,258.797 C235.481,260.118 236.78,261.506 237.923,262.708 C242.993,268.104 248.418,273.863 251.735,279.474 M280.332,264.927 C281.624,269.647 284.474,276.261 287.167,278.955 C289.298,281.077 290.745,283.155 291.806,285.3 C293.736,285.011 295.621,284.625 297.462,284.15 C294.708,280.513 290.574,275.786 283.746,268.386 C282.395,266.916 281.267,265.788 280.332,264.927 M268.19,283.616 C269.771,283.95 271.196,284.269 272.413,284.581 C275.003,285.248 277.764,285.657 280.599,285.82 L280.451,285.671 C275.352,280.573 268.517,264.823 270.528,257.706 C271.24,255.167 272.999,253.386 275.367,252.822 C279.419,251.843 283.857,254.492 290.723,261.936 C298.991,270.887 303.614,276.29 306.657,280.662 C308.327,279.778 309.864,278.792 311.207,277.723 C315.43,274.353 317.501,270.36 317.367,265.87 C317.122,257.112 316.247,256.696 312.558,254.952 C309.032,253.282 303.704,250.759 297.306,243.033 C283.419,226.259 283.538,209.687 283.627,198.724 L283.635,196.542 C283.635,187.25 291.027,174.21 296.423,164.688 L296.489,164.584 C291.212,158.928 285.936,153.532 280.48,147.981 C274.944,142.325 269.392,136.647 263.751,130.599 L260.122,126.68 C246.236,111.584 233.27,97.364 214.173,97.802 C193.377,98.313 180.686,102.21 173.702,105.379 C170.214,108.073 154.316,133.137 141.736,153.332 C144.467,154.816 146.597,157.147 148.03,160.249 C150.991,166.669 153.262,173.645 155.452,180.399 C157.901,187.962 160.439,195.763 163.178,199.437 C171.587,198.316 204.354,171.352 208.688,166.64 C210.515,163.841 220.734,158.631 226.056,158.631 C226.494,158.631 226.983,158.527 227.54,158.446 C232.246,157.688 242.035,156.145 250.318,172.696 C252.426,176.911 254.704,180.593 256.805,183.999 C262.72,193.596 268.309,202.658 264.315,215.149 C259.521,230.141 249.012,237.793 240.565,243.946 L239.155,244.978 C237.827,245.957 236.424,246.87 235.044,247.768 C234.235,248.302 233.478,248.792 232.78,249.267 C236.743,249.416 240.306,249 243.512,248.622 C255.09,247.241 262.995,247.761 266.743,266.516 C267.789,271.778 268.16,277.634 268.19,283.616 M164.491,258.055 L164.254,258.069 C163.438,258.166 162.644,259.242 161.426,261.009 C160.974,261.669 160.521,262.329 160.046,262.931 C159.059,264.207 162.74,271.882 164.306,275.155 C165.864,278.413 167.497,281.834 168.759,285.248 C170.904,291.059 173.888,292.195 182.2,294.637 C184.724,295.379 187.484,296.196 190.513,297.294 C194.157,298.63 197.163,298.645 200.227,298.133 C186.415,295.899 182.593,293.539 180.849,290.087 C178.875,286.184 180.968,282.651 182.497,280.075 C184.798,276.194 186.186,273.856 180.53,268.661 C170.095,259.071 165.827,258.055 164.491,258.055 M311.326,288.915 C311.949,290.288 312.543,291.743 313.204,293.36 C314.005,295.327 314.918,297.591 316.172,300.404 C319.327,307.499 324.151,312.368 328.173,312.524 C331.736,312.821 334.111,309.243 335.662,306.364 C346.03,287.111 348.383,275.088 342.646,270.627 C339.974,268.549 336.278,266.041 332.434,263.428 C330.214,261.921 328.196,260.534 326.362,259.257 C326.63,261.061 326.793,263.153 326.867,265.603 C327.082,273.121 323.72,279.882 317.137,285.144 C315.4,286.532 313.448,287.787 311.326,288.915 M136.689,161.444 C135.576,163.233 134.515,164.947 133.52,166.543 C126.989,177.075 121.585,185.788 119.055,189.506 C117.392,191.94 115.737,194.004 114.223,195.889 C108.382,203.163 106.415,205.612 115.611,219.016 C124.272,231.64 126.343,249.49 128.005,263.829 C128.978,272.186 129.979,280.832 131.991,283.349 C138.403,291.372 141.068,294.696 154.175,305.532 C158.25,308.894 160.78,312.368 162.814,315.159 C167.312,321.356 169.59,324.466 188.843,319.463 C207.813,314.535 217.55,308.011 220.66,304.731 C215.776,304.115 211.873,305.124 207.724,306.178 C202.046,307.618 195.582,309.243 187.262,306.223 C184.449,305.198 181.874,304.441 179.521,303.751 C171.06,301.265 163.749,299.127 159.845,288.536 C158.688,285.397 157.181,282.25 155.741,279.267 C151.733,270.909 147.948,263.013 152.55,257.097 C152.913,256.637 153.247,256.132 153.604,255.628 C155.355,253.075 158.012,249.215 163.192,248.629 C169.145,247.931 176.277,251.857 186.957,261.662 C198.291,272.075 193.14,280.751 190.668,284.922 C190.468,285.256 190.238,285.642 190.038,286.005 C192.628,287.193 200.339,289.093 222.53,291.312 C243.163,293.397 245.301,289.516 245.315,289.479 C245.583,288.93 245.494,288.143 245.138,287.193 C243.141,286.406 241.145,285.53 239.192,284.536 C231.86,280.78 226.271,275.882 222.59,269.952 C211.368,251.865 222.493,244.614 229.856,239.811 C231.095,239.01 232.35,238.194 233.544,237.318 L234.977,236.271 C243.059,230.378 251.417,224.285 255.269,212.254 C257.814,204.298 254.771,198.806 248.715,188.987 C246.481,185.365 244.069,181.431 241.82,176.941 C236.662,166.61 232.788,167.226 229.024,167.819 C227.911,167.998 226.917,168.131 226.056,168.131 C223.874,168.131 217.395,171.323 215.999,172.673 C215.138,174.032 177.257,207.875 163.371,208.936 C159.986,209.189 157.901,207.823 156.802,206.621 C152.423,201.841 149.633,193.262 146.412,183.331 C144.304,176.837 142.129,170.135 139.405,164.228 C138.767,162.847 137.914,161.956 136.689,161.444 M267.989,293.294 C267.863,296.381 267.7,299.439 267.537,302.4 C267.054,311.284 266.245,326.158 268.724,328.117 C275.077,332.355 279.931,333.55 281.92,332.882 C282.217,332.786 282.826,332.57 283.308,331.13 C285.149,325.594 289.728,324.139 292.177,323.352 C292.63,323.211 293.29,322.996 293.617,322.848 C293.409,322.669 293.32,320.814 291.413,316.124 C288.08,307.922 286.752,302.111 285.676,297.442 C285.513,296.708 285.356,296.025 285.201,295.372 C279.991,295.52 274.795,295.008 270.045,293.784 C269.414,293.62 268.731,293.457 267.989,293.294 M280.644,342.567 C274.691,342.567 268.234,339.205 263.447,336.014 C256.448,331.353 257.124,318.988 258.052,301.888 C258.245,298.43 258.437,294.837 258.564,291.231 C257.354,290.948 256.107,290.637 254.831,290.303 C254.697,291.453 254.37,292.581 253.836,293.68 C251.083,299.261 243.935,301.769 230.902,301.391 C231.095,302.037 231.177,302.616 231.199,303.061 C231.837,313.355 210.93,323.545 191.225,328.651 C167.416,334.834 161.701,329.787 155.125,320.747 C153.232,318.142 151.273,315.455 148.126,312.85 C134.93,301.948 131.769,298.281 124.569,289.286 C120.851,284.64 119.849,275.934 118.565,264.927 C117.028,251.627 115.106,235.077 107.781,224.389 C95.23,206.094 99.238,199.377 106.816,189.944 C108.189,188.23 109.696,186.359 111.202,184.147 C113.592,180.652 118.558,172.651 124.614,162.884 C118.728,165.2 113.258,168.858 112.101,170.187 C110.646,172.376 107.766,172.881 105.577,171.419 C103.387,169.972 102.86,166.937 104.315,164.754 C106.571,161.362 119.953,152.308 131.716,151.462 C157.077,110.76 165.575,98.633 169.769,96.733 C177.554,93.192 191.544,88.866 213.929,88.302 C237.181,87.589 252.396,104.251 267.114,120.238 L270.706,124.12 C276.28,130.116 281.787,135.735 287.271,141.331 C291.896,146.051 296.601,150.853 301.351,155.885 C306.279,147.951 319.23,130.614 332.411,130.614 L335.551,130.577 C347.864,130.428 368.378,130.042 376.319,151.439 C378.798,158.126 383.503,163.537 387.652,168.31 C392.551,173.942 396.781,178.804 395.119,184.37 C393.59,189.491 387.771,191.733 382.873,193.113 C358.083,200.104 325.739,198.464 309.337,179.026 C307.281,176.592 305.247,174.247 303.221,171.968 C298.909,179.65 293.135,190.486 293.135,196.542 L293.127,198.791 C293.046,208.952 292.942,222.868 304.624,236.977 C307.348,240.265 309.715,242.313 311.815,243.723 C311.823,243.434 311.853,243.137 311.898,242.832 C312.09,241.667 312.944,238.832 316.818,237.719 C334.059,232.79 354.247,228.597 361.943,238.869 C363.605,241.088 365.438,243.834 367.405,246.781 C372.809,254.886 380.201,265.989 386.517,268.089 L389.367,269.069 C393.048,270.345 401.672,273.329 403.424,271.882 C403.661,271.688 404.226,270.368 403.758,266.954 C401.694,252.043 386.168,237.689 382.776,236.62 C381.863,236.42 380.319,236.576 378.828,236.731 C375.243,237.11 367.762,237.86 365.565,229.822 C363.375,221.762 371.762,218.095 375.8,216.329 C376.497,216.024 377.143,215.765 377.647,215.505 C379.251,213.182 384.921,210.095 408.463,210.095 C413.436,210.095 426.617,210.095 431.582,204.944 C432.94,203.541 433.534,201.841 433.445,199.585 C432.955,186.337 426.016,171.456 423.953,168.933 C422.119,167.589 421.459,165.081 422.513,162.973 C423.693,160.635 426.535,159.678 428.888,160.851 C434.084,163.456 442.381,184.11 442.937,199.229 C443.123,204.031 441.558,208.291 438.418,211.534 C430.662,219.595 415.106,219.595 408.471,219.595 C399.958,219.595 388.536,220.597 385.122,221.591 C383.845,223.179 381.767,224.092 379.607,225.035 C378.167,225.666 375.176,226.972 374.642,227.84 C375.02,227.573 376.72,227.395 377.848,227.284 C379.993,227.046 382.413,226.801 384.906,227.358 C392.714,229.102 410.72,247.924 413.161,265.655 C414.029,271.934 412.783,276.498 409.45,279.229 C403.58,284.046 394.376,280.854 386.257,278.042 L383.511,277.106 C374.107,273.967 366.344,262.329 359.501,252.05 C357.646,249.267 355.916,246.669 354.343,244.562 C352.658,242.32 346.446,239.619 323.928,245.608 C327.528,248.614 333.651,252.77 337.77,255.576 C341.8,258.307 345.682,260.949 348.479,263.131 C363.464,274.784 349.348,301.005 344.026,310.876 C338.638,320.896 331.587,322.187 327.817,322.017 C319.891,321.712 312.298,315.077 307.489,304.263 C306.19,301.339 305.232,298.979 304.401,296.931 C303.741,295.29 303.162,293.88 302.553,292.537 C300.03,293.316 297.402,293.947 294.73,294.414 C294.797,294.711 294.872,295.016 294.938,295.312 C295.933,299.654 297.172,305.05 300.215,312.546 C303.043,319.508 303.577,323.901 302.011,327.256 C300.394,330.707 297.187,331.724 295.072,332.399 C292.815,333.12 292.593,333.327 292.318,334.136 C290.693,339.013 287.45,341.031 285.008,341.87 C283.612,342.353 282.143,342.567 280.644,342.567" fill="#E9D4AD"/>
    <path d="M210.522,213.961 C212.014,216.203 213.847,219.231 215.124,223.061 C217.788,231.062 221.506,232.835 227.14,235.529 C228.453,236.153 229.804,236.798 231.169,237.533 C233.537,238.81 234.754,238.454 239.942,236.042 C243.074,234.594 246.978,232.79 252.307,231.403 C257.836,229.97 262.341,229.339 266.372,229.643 C262.586,225.094 258.972,220.849 254.942,218.273 C244.677,211.705 234.012,212.455 221.669,213.338 C218.649,213.546 215.599,213.761 212.496,213.872 C211.754,213.894 211.101,213.932 210.522,213.961 M259.358,283.334 C254.727,283.334 250.155,282.636 246.05,281.018 C238.161,277.923 234.918,273.27 232.772,270.197 C230.531,266.976 229.982,266.226 221.922,269.069 C200.799,276.528 184.419,268.089 172.485,259.933 C163.646,253.884 162.821,248.763 162.651,242.691 C162.606,240.888 162.561,239.181 162.02,237.303 C160.959,233.592 157.73,222.274 152.208,219.609 C151.199,219.134 149.514,218.615 146.694,219.802 C142.501,221.546 138.196,221.502 134.225,219.676 C124.45,215.186 119.7,201.3 119.188,199.733 C118.379,197.24 119.737,194.568 122.231,193.751 C124.732,192.935 127.404,194.293 128.221,196.787 C129.193,199.749 133.119,208.722 138.203,211.052 C139.754,211.757 141.298,211.757 143.035,211.03 C147.681,209.1 152.282,209.115 156.327,211.052 C164.625,215.052 168.61,225.792 171.156,234.698 C172.024,237.719 172.091,240.331 172.151,242.439 C172.262,246.462 172.314,248.302 177.851,252.095 C188.568,259.42 201.794,266.115 218.76,260.11 C231.436,255.665 235.89,258.055 240.565,264.764 C242.406,267.399 244.313,270.13 249.524,272.179 C258.103,275.533 269.971,273.433 277.282,269.61 C281.274,267.525 282.418,265.714 282.507,265.343 C282.358,263.48 282.403,261.528 282.462,259.613 C282.625,254.099 282.722,250.455 277.705,245.764 C270.468,239.01 266.579,237.496 254.704,240.599 C250.192,241.771 246.859,243.315 243.92,244.673 C238.517,247.174 233.396,249.52 226.664,245.897 C225.44,245.245 224.23,244.666 223.05,244.102 C216.949,241.184 210.047,237.89 206.106,226.066 C204.977,222.652 203.189,220.055 201.764,217.969 C199.901,215.26 197.801,212.188 199.538,208.744 C201.408,205.04 205.95,204.595 212.169,204.38 C215.145,204.276 218.092,204.068 221.001,203.86 C233.864,202.947 247.164,202.012 260.063,210.272 C265.533,213.769 269.749,218.845 274.216,224.226 C282.143,233.771 290.337,243.642 306.502,244.992 C333.124,247.196 351.968,241.17 354.314,238.951 C354.944,237.733 356.614,236.167 359.494,233.533 C361.72,231.477 368.519,225.235 368.4,222.964 L366.106,221.435 C358.744,216.351 353.015,212.447 348.242,212.714 C346.98,212.826 345.288,213.004 343.507,213.204 C333.257,214.31 329.784,214.688 328.923,209.857 C328.04,204.892 331.877,203.942 343.269,201.092 C364.407,195.8 385.626,194.761 401.464,198.19 C416.701,201.515 426.365,200.587 428.888,198.353 C429.17,198.101 429.586,197.729 429.467,196.423 C429.111,192.705 429.304,189.981 430.15,187.888 C429.927,187.628 429.689,187.347 429.415,187.027 C419.336,175.108 412.144,167.567 410.489,166.528 C408.931,166.246 407.186,164.257 406.749,161.637 C406.236,158.572 407.595,155.41 410.126,153.777 C411.848,152.664 415.529,151.321 420.82,154.861 C421.214,155.113 459.711,182.455 453.647,205.204 C452.497,209.523 451.569,213.991 450.664,218.348 C447.799,232.108 445.09,245.096 436.199,250.855 L434.625,251.872 C426.743,256.956 412.063,266.434 409.925,271.132 C408.894,273.403 408.745,274.672 408.634,275.696 C408.434,277.366 408.085,280.483 403.935,282.146 C401.501,283.133 398.74,281.946 397.761,279.504 C396.952,277.493 397.627,275.244 399.275,273.982 C399.505,272.26 399.943,270.145 401.279,267.198 C404.322,260.511 415.848,252.688 429.482,243.886 L431.04,242.877 C436.607,239.277 438.915,228.174 441.364,216.411 C442.307,211.883 443.271,207.245 444.474,202.754 C445.58,198.598 443.851,193.514 440.689,188.349 C440.6,189.469 440.028,190.59 438.789,191.726 C438.871,191.777 438.67,192.868 438.915,195.525 C439.301,199.519 438.017,202.955 435.197,205.456 C427.478,212.306 409.48,209.657 399.445,207.482 C388.914,205.181 375.651,205.114 361.572,207.141 C364.704,208.922 367.955,211.163 371.502,213.62 L373.41,214.934 C376.846,217.294 377.737,220.248 377.878,222.304 C378.353,229.095 371.458,235.433 365.914,240.524 C364.533,241.793 362.641,243.538 362.225,244.146 C357.935,251.612 330.964,256.563 305.715,254.455 C300.304,254.002 295.599,252.778 291.45,251.026 C292.125,254.195 292.036,257.194 291.955,259.888 C291.91,261.498 291.851,263.131 291.977,264.823 C292.163,267.473 291.235,271.488 285.728,275.541 C279.582,280.053 269.355,283.334 259.358,283.334" fill="#E9D4AD"/>
    <path d="M284.184,175.442 C288.875,175.442 293.959,175.546 299.458,175.791 C329.465,177.126 337.829,180.229 341.592,184.823 C344.501,188.363 343.893,192.297 343.492,194.894 C343.002,198.101 342.817,199.296 346.788,201.582 C363.264,211.052 368.623,211.089 398.911,190.337 C408.871,183.517 409.984,181.104 410.096,180.526 C409.732,179.665 406.222,177.171 403.661,175.345 C397.078,170.655 387.147,163.581 379.229,150.393 C371.799,138.013 363.65,140.663 349.875,146.43 C338.423,151.246 324.195,157.221 314.153,141.977 C305.062,128.194 298.694,121.151 292.526,114.337 C287.546,108.823 282.388,103.123 275.946,94.098 C272.628,89.459 270.921,87.604 270.045,86.869 C269.155,87.715 267.759,89.467 266.579,90.937 C263.121,95.271 257.888,101.817 249.004,108.793 C243.468,113.15 238.398,116.104 233.752,117.944 C237.99,118.961 242.325,120.898 246.629,124.134 C256.849,131.794 258.259,139.587 259.187,144.752 C260.085,149.725 260.382,151.417 274.981,150.63 C277.504,150.437 279.842,152.508 279.976,155.128 C280.109,157.748 278.105,159.982 275.485,160.123 C255.78,161.155 251.698,156.731 249.835,146.43 C249.012,141.873 248.165,137.152 240.937,131.727 C228.038,122.063 215.391,127.556 203.545,134.013 C202.172,134.763 200.992,135.408 199.923,135.92 C202.38,145.68 221.254,179.034 227.34,185.58 C227.822,185.365 228.409,185.075 228.928,184.831 C235.029,181.884 248.358,175.442 284.184,175.442 M363.754,217.234 C356.911,217.234 350.409,214.629 342.052,209.813 C332.441,204.283 333.524,197.24 334.111,193.454 C334.267,192.415 334.467,191.109 334.252,190.85 C333.228,189.595 327.743,186.552 299.035,185.283 C253.954,183.272 239.311,190.36 233.062,193.38 C229.982,194.88 226.79,196.409 223.176,194.405 C217.068,191.013 188.946,143.713 190.223,133.137 C190.542,130.517 192.145,128.565 194.505,127.919 C195.24,127.719 197.237,126.628 198.988,125.678 C202.565,123.719 207.627,120.965 213.565,119.102 C205.891,116.549 199.879,110.679 194.936,104.637 C185.458,93.059 170.533,89.11 163.964,88.643 C160.098,90.112 144.86,110.864 133.468,129.285 C132.087,131.519 129.163,132.21 126.922,130.829 C124.695,129.448 124.005,126.517 125.386,124.29 C144.229,93.816 157.619,78.779 164.64,79.165 C173.212,79.774 190.787,84.561 202.291,98.625 C211.064,109.335 221.447,118.375 243.134,101.327 C251.157,95.026 255.78,89.237 259.165,85.006 C262.765,80.501 265.644,77.109 270.171,77.058 C274.743,77.184 278.172,80.872 283.672,88.576 C289.802,97.148 294.552,102.403 299.569,107.962 C305.982,115.035 312.595,122.36 322.087,136.759 C327.275,144.619 333.116,143.157 346.208,137.672 C358.507,132.514 375.347,125.463 387.37,145.502 C394.272,156.991 402.882,163.129 409.168,167.604 C415.017,171.768 419.641,175.063 419.589,180.667 C419.537,186.575 413.94,191.562 404.285,198.175 C385.069,211.341 374.026,217.234 363.754,217.234" fill="#E9D4AD"/>
    <path d="M230.056,207.586 C229.017,207.586 227.971,207.245 227.095,206.539 C226.887,206.703 222.716,205.997 219.398,205.493 C202.818,202.97 180.1,199.503 180.716,186.597 C180.894,182.841 181.599,178.93 182.356,174.796 C184.04,165.497 185.777,155.87 181.324,147.996 C176.5,139.46 170.221,138.778 159.815,137.649 C157.21,137.368 154.464,137.071 151.57,136.625 C144.148,135.482 140.771,136.358 139.012,137.746 C142.642,139.446 148.497,142.526 157.448,149.302 C164.885,154.935 165.144,159.967 164.061,163.203 C160.172,174.767 131.991,176.14 131.716,176.14 C131.286,176.147 130.417,176.228 129.2,176.332 C119.44,177.186 93.523,179.427 80.261,169.467 C75.407,165.831 73.276,160.509 74.256,154.49 C76.201,142.563 90.176,129.909 94.191,128.573 C96.678,127.764 99.364,129.092 100.196,131.579 C100.997,133.991 99.758,136.588 97.42,137.501 C94.718,138.985 84.165,149.124 83.541,156.731 C83.363,158.928 84.09,160.464 85.953,161.867 C96.321,169.653 120.45,167.56 128.384,166.87 C130.017,166.728 131.167,166.64 131.716,166.64 C137.246,166.617 153.44,163.477 155.051,160.183 C154.962,160.183 154.487,158.973 151.711,156.872 C141.959,149.487 136.333,146.942 133.312,145.584 C130.982,144.53 128.97,143.617 128.095,141.153 C127.256,138.8 128.272,136.767 128.606,136.099 C131.501,130.302 136.667,124.706 153.017,127.237 C155.763,127.66 158.368,127.942 160.84,128.209 C171.913,129.411 182.378,130.54 189.6,143.32 C195.737,154.186 193.593,166.038 191.7,176.488 C191.01,180.31 190.356,183.91 190.208,187.057 C190.142,188.363 193.006,191.866 220.838,196.104 C228.906,197.336 231.311,197.752 233.032,199.125 C235.073,200.765 235.407,203.756 233.767,205.805 C232.832,206.978 231.452,207.586 230.056,207.586" fill="#E9D4AD"/>
    <path d="M327.268,224.166 C324.982,224.166 323.067,222.548 322.614,220.396 C321.212,217.65 311.593,205.983 303.11,199.095 C300.223,196.743 296.853,194.523 293.469,192.274 C285.847,187.227 277.972,182.003 273.949,174.855 C267.462,163.314 280.822,155.21 296.289,145.829 C299.332,143.98 302.553,142.028 305.841,139.935 C312.365,135.787 316.61,133.842 320.403,135.564 C323.936,137.152 324.515,140.826 324.938,143.505 C325.45,146.704 325.925,149.732 329.606,151.811 C336.367,155.633 339.254,159.433 342.594,163.841 C346.372,168.829 351.077,175.041 364.362,184.704 C383.548,198.657 388.365,194.435 395,188.579 C396.002,187.695 397.011,186.812 398.058,185.974 C404.329,180.956 406.563,173.69 400.425,149.695 C397.412,137.88 380.587,139.513 366.263,142.244 C361.683,143.112 358.076,143.81 356.525,139.847 C355.827,138.073 355.798,135.445 359.627,133.056 C360.444,132.543 360.889,131.897 361.104,130.903 C361.55,128.832 361.49,122.36 351.33,107.124 C347.277,101.038 325.138,99.204 316.81,98.507 C312.587,98.158 310.665,97.987 309.381,97.623 C306.858,96.903 305.395,94.269 306.116,91.745 C306.835,89.237 309.433,87.797 311.949,88.472 C312.847,88.68 314.888,88.813 317.597,89.036 C334.556,90.446 353.148,92.718 359.234,101.854 C367.873,114.812 371.591,124.639 370.582,131.831 C383.548,129.797 404.871,128.728 409.628,147.335 C416.145,172.8 414.668,184.852 403.995,193.395 C403.06,194.138 402.169,194.924 401.279,195.711 C391.897,203.986 382.212,209.434 358.781,192.386 C344.36,181.899 338.958,174.781 335.024,169.579 C331.988,165.578 329.984,162.936 324.93,160.086 C317.427,155.848 316.202,149.064 315.593,145.242 C314.577,145.754 313.085,146.585 310.947,147.951 C307.593,150.081 304.319,152.07 301.217,153.956 C290.908,160.205 280.243,166.669 282.232,170.202 C285.126,175.353 292.036,179.932 298.716,184.355 C302.368,186.775 305.989,189.187 309.106,191.718 C314.807,196.349 332.018,213.553 332.018,219.416 C332.018,222.044 329.888,224.166 327.268,224.166" fill="#E9D4AD"/>
    <path d="M248.678,331.68 C231.556,331.68 217.194,316.42 206.655,305.213 L204.317,302.734 C193.259,291.097 205.253,272.639 214.077,263.561 C215.91,261.691 218.909,261.632 220.786,263.473 C222.671,265.298 222.716,268.304 220.89,270.182 C216.385,274.835 204.926,289.59 211.205,296.196 L213.572,298.704 C223.599,309.37 236.187,322.595 249.338,322.172 C277.378,321.208 302.969,316.888 306.375,312.546 C311.125,306.497 307.303,287.171 304.126,284.677 C301.017,282.769 295.644,280.84 285.542,286.466 C282.499,288.158 280.072,290.77 277.72,293.294 C273.021,298.355 267.181,304.657 256.575,301.116 C246.934,297.903 241.716,292.284 237.909,288.187 C236.558,286.733 235.333,285.382 234.005,284.351 L232.364,283.081 C227.021,278.962 223.495,276.238 222.59,272.601 C221.565,268.49 226.516,256.949 231.452,249.772 C237.782,240.576 245.605,235.173 254.073,234.142 C270.906,232.123 322.733,231.433 339.136,254.396 L343.849,261.046 C354.41,276.008 365.335,291.483 372.69,291.869 C384.713,292.522 392.729,291.728 395.638,285.909 L397.753,281.775 C401.264,274.999 404.9,267.993 403.832,263.369 C403.149,260.415 402.815,256.941 402.459,253.275 C401.895,247.412 401.249,240.762 399.067,236.413 C397.895,234.06 398.845,231.21 401.189,230.037 C403.542,228.864 406.385,229.807 407.565,232.16 C410.534,238.097 411.269,245.675 411.914,252.354 C412.233,255.65 412.516,258.752 413.087,261.239 C414.942,269.262 410.489,277.849 406.185,286.146 L404.129,290.162 C397.865,302.705 381.812,301.844 372.185,301.354 C360.236,300.723 349.578,285.634 336.085,266.523 L331.409,259.917 C318.829,242.298 273.808,241.318 255.216,243.575 C241.39,245.252 233.181,265.447 232.045,270.583 C232.958,271.54 235.815,273.745 238.168,275.563 L239.838,276.854 C241.53,278.168 243.134,279.852 244.87,281.723 C248.492,285.62 252.248,289.657 259.581,292.106 C264.167,293.62 266.015,291.928 270.765,286.829 C273.481,283.897 276.569,280.587 280.926,278.161 C291.628,272.223 301.113,271.696 309.143,276.609 C314.102,279.645 316.306,288.202 317.174,293.026 C317.894,297.064 319.802,310.839 313.849,318.417 C305.804,328.651 266.282,331.086 249.665,331.657 C249.338,331.672 249.004,331.68 248.678,331.68" fill="#E9D4AD"/>
    <path d="M253.776,332.097 C248.07,332.097 242.566,331.91 237.493,331.487 C224.64,330.416 212.828,327.82 203.082,324.992 C208.945,322.877 214.495,320.384 219.093,317.653 C227.595,325.238 237.554,331.68 248.678,331.68 C249.004,331.68 249.338,331.672 249.665,331.657 C252.416,331.563 255.794,331.417 259.553,331.193 C259.68,331.48 259.813,331.758 259.954,332.028 C257.874,332.073 255.813,332.097 253.776,332.097 M274.562,331.4 C273.81,331.063 273.016,330.67 272.186,330.218 C276.213,329.828 280.353,329.345 284.398,328.747 C284.036,329.344 283.713,330.01 283.44,330.753 C280.515,330.996 277.542,331.214 274.562,331.4 M300.944,328.964 C301.344,328.472 301.706,327.907 302.011,327.256 C302.376,326.475 302.627,325.637 302.761,324.724 C307.857,323.047 311.838,320.976 313.849,318.417 C314.427,317.681 314.931,316.887 315.369,316.049 C319.138,319.737 323.427,321.848 327.817,322.017 C328.012,322.025 328.216,322.03 328.427,322.03 C328.909,322.03 329.431,322.005 329.988,321.942 C330.77,322.922 331.269,323.486 331.269,323.486 C328.716,324.763 316.616,327.062 300.944,328.964 M187.602,319.78 C180.467,317.03 176.307,314.906 176.307,314.906 C179.693,314.906 186.463,311.555 193.147,307.689 C194.382,307.856 195.572,307.928 196.725,307.928 C200.751,307.928 204.305,307.045 207.594,306.211 C208.994,307.698 210.458,309.243 211.984,310.805 C206.711,313.645 199.136,316.789 188.843,319.463 C188.421,319.573 188.008,319.678 187.602,319.78 M322.364,309.568 C320.836,308.141 319.351,306.248 318.026,304.008 C318.073,302.292 318.021,300.635 317.918,299.129 C319.883,298.985 320.974,298.897 320.974,298.897 C320.023,302.13 320.844,305.932 322.364,309.568" fill="#B79272"/>
    <path d="M259.954,332.028 C259.813,331.758 259.68,331.48 259.553,331.193 C263.447,330.962 267.749,330.647 272.186,330.218 C273.016,330.67 273.81,331.063 274.562,331.4 C269.686,331.705 264.777,331.924 259.954,332.028 M283.44,330.753 C283.713,330.01 284.036,329.344 284.398,328.747 C291.086,327.756 297.514,326.45 302.761,324.724 C302.627,325.637 302.376,326.475 302.011,327.256 C301.706,327.907 301.344,328.472 300.944,328.964 C295.46,329.629 289.542,330.245 283.44,330.753 M203.082,324.992 C197.049,323.241 191.809,321.402 187.602,319.78 C188.008,319.678 188.421,319.573 188.843,319.463 C199.136,316.789 206.711,313.645 211.984,310.805 C214.223,313.097 216.594,315.424 219.093,317.653 C214.495,320.384 208.945,322.877 203.082,324.992 M328.427,322.03 C328.216,322.03 328.012,322.025 327.817,322.017 C323.427,321.848 319.138,319.737 315.369,316.049 C317.246,312.458 317.915,308.062 318.026,304.008 C319.351,306.248 320.836,308.141 322.364,309.568 C324.523,314.734 328.09,319.564 329.988,321.942 C329.431,322.005 328.909,322.03 328.427,322.03 M196.725,307.928 C195.572,307.928 194.382,307.856 193.147,307.689 C196.712,305.627 200.255,303.418 203.244,301.493 C203.574,301.914 203.932,302.329 204.317,302.734 L206.655,305.213 C206.965,305.542 207.278,305.876 207.594,306.211 C204.305,307.045 200.751,307.928 196.725,307.928" fill="#F4E7CD"/>
    <path d="M248.722,322.182 C241.116,322.182 233.709,317.689 226.89,311.852 C229.764,309.011 231.384,306.04 231.199,303.061 C231.177,302.616 231.095,302.037 230.902,301.391 C231.755,301.416 232.581,301.428 233.384,301.428 C235.043,301.428 236.597,301.375 238.049,301.269 C243.637,301.546 249.713,301.661 255.954,301.661 C256.656,301.661 257.358,301.66 258.065,301.657 C258.06,301.734 258.056,301.811 258.052,301.888 C257.635,309.566 257.269,316.288 257.626,321.787 C254.901,321.947 252.131,322.076 249.338,322.172 C249.132,322.179 248.928,322.182 248.722,322.182 M267.112,321.098 C266.824,315.509 267.242,307.834 267.537,302.4 C267.552,302.115 267.568,301.829 267.584,301.541 C274.046,301.414 280.468,301.197 286.499,300.94 C287.487,304.975 288.864,309.85 291.413,316.124 C291.645,316.694 291.85,317.223 292.032,317.712 C285.276,319.085 276.648,320.268 267.112,321.098 M301.268,315.321 C300.961,314.443 300.611,313.52 300.215,312.546 C298.272,307.758 297.064,303.827 296.186,300.481 C299.589,300.303 302.766,300.121 305.636,299.947 C306.175,301.246 306.781,302.671 307.489,304.263 C307.796,304.954 308.115,305.629 308.445,306.285 C308.166,308.862 307.52,311.089 306.375,312.546 C305.64,313.483 303.871,314.419 301.268,315.321 M219.99,305.391 C219.725,305.125 219.461,304.858 219.198,304.592 C219.676,304.622 220.163,304.668 220.66,304.731 C220.463,304.939 220.24,305.159 219.99,305.391" fill="#B79272"/>
    <path d="M257.626,321.787 C257.269,316.288 257.635,309.566 258.052,301.888 C258.056,301.811 258.06,301.734 258.065,301.657 C258.193,301.656 258.328,301.656 258.457,301.655 C259.886,301.995 261.222,302.148 262.477,302.148 C263.957,302.148 265.322,301.935 266.592,301.56 C266.924,301.554 267.252,301.548 267.584,301.541 C267.568,301.829 267.552,302.115 267.537,302.4 C267.242,307.834 266.824,315.509 267.112,321.098 C264.034,321.367 260.86,321.598 257.626,321.787 M292.032,317.712 C291.85,317.223 291.645,316.694 291.413,316.124 C288.864,309.85 287.487,304.975 286.499,300.94 C289.869,300.797 293.12,300.64 296.186,300.481 C297.064,303.827 298.272,307.758 300.215,312.546 C300.611,313.52 300.961,314.443 301.268,315.321 C298.854,316.156 295.723,316.962 292.032,317.712 M226.89,311.852 C224.513,309.817 222.208,307.62 219.99,305.391 C220.24,305.159 220.463,304.939 220.66,304.731 C220.163,304.668 219.676,304.622 219.198,304.592 C217.249,302.609 215.369,300.615 213.572,298.704 L211.205,296.196 C214.902,299.13 225.178,300.63 238.049,301.269 C236.597,301.375 235.043,301.428 233.384,301.428 C232.581,301.428 231.755,301.416 230.902,301.391 C231.095,302.037 231.177,302.616 231.199,303.061 C231.384,306.04 229.764,309.011 226.89,311.852 M308.445,306.285 C308.115,305.629 307.796,304.954 307.489,304.263 C306.781,302.671 306.175,301.246 305.636,299.947 C306.62,299.887 307.572,299.828 308.481,299.771 C308.654,302.022 308.663,304.261 308.445,306.285" fill="#F4E7CD"/>
    <path d="M248.678,331.68 C237.554,331.68 227.595,325.238 219.093,317.653 C216.594,315.424 214.223,313.097 211.984,310.805 C210.458,309.243 208.994,307.698 207.594,306.211 C207.278,305.876 206.965,305.542 206.655,305.213 L204.317,302.734 C203.932,302.329 203.574,301.914 203.244,301.493 C207.891,298.501 211.205,296.196 211.205,296.196 L213.572,298.704 C215.369,300.615 217.249,302.609 219.198,304.592 C219.461,304.858 219.725,305.125 219.99,305.391 C222.208,307.62 224.513,309.817 226.89,311.852 C233.709,317.689 241.116,322.182 248.722,322.182 C248.928,322.182 249.132,322.179 249.338,322.172 C252.131,322.076 254.901,321.947 257.626,321.787 C260.86,321.598 264.034,321.367 267.112,321.098 C276.648,320.268 285.276,319.085 292.032,317.712 C295.723,316.962 298.854,316.156 301.268,315.321 C303.871,314.419 305.64,313.483 306.375,312.546 C307.52,311.089 308.166,308.862 308.445,306.285 C308.663,304.261 308.654,302.022 308.481,299.771 C312.501,299.516 315.744,299.288 317.918,299.129 C318.021,300.635 318.073,302.292 318.026,304.008 C317.915,308.062 317.246,312.458 315.369,316.049 C314.931,316.887 314.427,317.681 313.849,318.417 C311.838,320.976 307.857,323.047 302.761,324.724 C297.514,326.45 291.086,327.756 284.398,328.747 C280.353,329.345 276.213,329.828 272.186,330.218 C267.749,330.647 263.447,330.962 259.553,331.193 C255.794,331.417 252.416,331.563 249.665,331.657 C249.338,331.672 249.004,331.68 248.678,331.68 M262.477,302.148 C261.222,302.148 259.886,301.995 258.457,301.655 C261.156,301.642 263.875,301.609 266.592,301.56 C265.322,301.935 263.957,302.148 262.477,302.148" fill="#F4E7CD"/>
    <path d="M53.371,199.407 C53.371,199.407 49.37,168.524 68.245,138.221 C68.245,138.221 71.496,143.882 75.401,150.285 C74.877,151.684 74.484,153.091 74.256,154.49 C73.309,160.306 75.267,165.472 79.78,169.095 C79.37,168.984 78.955,168.93 78.545,168.93 C76.585,168.93 74.742,170.152 74.048,172.109 C73.795,172.839 73.011,175.156 72.155,178.386 C63.071,185.105 53.371,193.63 53.371,199.407 M82.573,171.176 C82.515,171.082 82.454,170.99 82.39,170.901 C82.495,170.964 82.6,171.027 82.706,171.089 C82.662,171.118 82.618,171.147 82.573,171.176" fill="#B79272"/>
    <path d="M72.155,178.386 C73.011,175.156 73.795,172.839 74.048,172.109 C74.742,170.152 76.585,168.93 78.545,168.93 C78.955,168.93 79.37,168.984 79.78,169.095 C79.937,169.221 80.097,169.345 80.261,169.467 C80.938,169.976 81.65,170.454 82.39,170.901 C82.454,170.99 82.515,171.082 82.573,171.176 C79.731,173.026 75.998,175.544 72.155,178.386" fill="#F4E7CD"/>
    <path d="M82.706,171.089 C82.6,171.027 82.495,170.964 82.39,170.901 C81.65,170.454 80.938,169.976 80.261,169.467 C80.097,169.345 79.937,169.221 79.78,169.095 C75.267,165.472 73.309,160.306 74.256,154.49 C74.484,153.091 74.877,151.684 75.401,150.285 C80.005,157.833 85.518,166.411 87.683,167.953 C87.683,167.953 85.708,169.138 82.706,171.089" fill="#F4E7CD"/>
    <path d="M304.394,187.97 L304.649,187.565 L304.809,187.912 L304.394,187.97 M355.764,162.144 C359.291,158.402 362.463,154.379 365.21,150.196 C366.043,151.532 366.781,153.041 367.413,154.742 C367.713,155.549 368.036,156.337 368.379,157.108 C364.162,158.762 359.933,160.453 355.764,162.144 M377.251,153.68 C376.914,152.95 376.602,152.203 376.319,151.439 C375.033,147.973 373.417,145.079 371.559,142.663 C374.306,143.916 376.805,146.355 379.229,150.393 C379.651,151.096 380.078,151.781 380.511,152.45 C379.429,152.855 378.344,153.265 377.251,153.68" fill="#7E5942"/>
    <path d="M368.379,157.108 C368.036,156.337 367.713,155.549 367.413,154.742 C366.781,153.041 366.043,151.532 365.21,150.196 C366.955,147.537 368.528,144.813 369.909,142.058 C370.469,142.216 371.019,142.416 371.559,142.663 C373.417,145.079 375.033,147.973 376.319,151.439 C376.602,152.203 376.914,152.95 377.251,153.68 C374.319,154.795 371.352,155.943 368.379,157.108" fill="#BFA781"/>
    <path d="M389.69,149.084 C388.9,147.95 388.125,146.759 387.37,145.502 C386.17,143.502 384.923,141.773 383.637,140.284 C390.182,140.348 395.809,141.79 398.739,145.954 C395.837,146.92 392.813,147.968 389.69,149.084 M374.243,131.322 C374.89,129.207 375.412,127.097 375.8,125.007 C379.065,126.903 382.397,128.873 385.599,130.82 C384.729,130.779 383.858,130.76 382.992,130.76 C379.967,130.76 376.991,130.992 374.243,131.322" fill="#7E5942"/>
    <path d="M380.511,152.45 C380.078,151.781 379.651,151.096 379.229,150.393 C376.805,146.355 374.306,143.916 371.559,142.663 C371.019,142.416 370.469,142.216 369.909,142.058 C369.994,141.887 370.079,141.716 370.163,141.545 C374.557,140.814 379.042,140.282 383.181,140.282 C383.334,140.282 383.485,140.283 383.637,140.284 C384.923,141.773 386.17,143.502 387.37,145.502 C388.125,146.759 388.9,147.95 389.69,149.084 C386.705,150.151 383.63,151.28 380.511,152.45" fill="#BFA781"/>
    <path d="M398.739,145.954 C395.809,141.79 390.182,140.348 383.637,140.284 C383.485,140.283 383.334,140.282 383.181,140.282 C379.042,140.282 374.557,140.814 370.163,141.545 C371.827,138.162 373.198,134.736 374.243,131.322 C376.991,130.992 379.967,130.76 382.992,130.76 C383.858,130.76 384.729,130.779 385.599,130.82 C394.111,135.999 401.697,141.02 404.613,144.06 C402.728,144.645 400.762,145.28 398.739,145.954" fill="#BFA781"/>
    <path d="M198.982,187.435 C203.508,183.8 207.566,180.351 210.585,177.698 C211.544,179.233 212.488,180.708 213.405,182.104 L198.982,187.435 M190.783,181.818 C191.045,180.11 191.368,178.325 191.7,176.488 C193.593,166.038 195.737,154.186 189.6,143.32 C184.33,133.994 177.334,130.873 169.635,129.399 L193.823,121.368 C194.854,123.094 195.804,124.957 196.687,126.913 C195.738,127.409 194.92,127.806 194.505,127.919 C192.145,128.565 190.542,130.517 190.223,133.137 C189.537,138.823 197.347,155.122 205.665,169.507 C202.274,172.538 196.775,177.132 190.783,181.818 M205.115,122.486 C204.458,121.056 203.762,119.661 203.024,118.312 L208.121,116.62 C209.838,117.622 211.65,118.465 213.565,119.102 C210.484,120.069 207.639,121.275 205.115,122.486" fill="#7E5942"/>
    <path d="M196.687,126.913 C195.804,124.957 194.854,123.094 193.823,121.368 L203.024,118.312 C203.762,119.661 204.458,121.056 205.115,122.486 C202.774,123.609 200.709,124.735 198.988,125.678 C198.226,126.092 197.417,126.532 196.687,126.913" fill="#BFA781"/>
    <path d="M193.04,189.631 C192.965,189.595 192.891,189.559 192.82,189.524 L190.431,184.399 C190.527,183.562 190.647,182.7 190.783,181.818 C196.775,177.132 202.274,172.538 205.665,169.507 C207.306,172.343 208.966,175.106 210.585,177.698 C207.566,180.351 203.508,183.8 198.982,187.435 L193.04,189.631" fill="#BFA781"/>
    <path d="M230.323,175.851 C226.388,174.068 223.019,172.213 221.402,169.853 C221.357,169.786 221.312,169.719 221.267,169.651 C223.164,168.798 225.059,168.131 226.056,168.131 C226.917,168.131 227.911,167.998 229.024,167.819 C229.908,167.68 230.797,167.539 231.707,167.539 C234.012,167.539 236.453,168.44 239.277,172.542 L230.323,175.851 M248.377,169.179 C242.641,159.792 236.449,158.025 231.842,158.025 C230.166,158.025 228.698,158.259 227.54,158.446 C226.983,158.527 226.494,158.631 226.056,158.631 C223.735,158.631 220.484,159.622 217.403,160.971 C216.113,157.149 214.906,152.733 213.661,148.188 C212.172,142.763 210.587,136.972 208.64,131.36 C214.285,128.601 220.086,126.494 225.991,126.494 C230.913,126.494 235.906,127.958 240.937,131.727 C248.165,137.152 249.012,141.873 249.835,146.43 C251.288,154.462 254.087,158.921 264.592,160.006 C264.813,160.409 265.041,160.813 265.273,161.214 C265.549,161.69 265.83,162.158 266.118,162.622 L248.377,169.179 M201.824,141.229 C200.924,139.092 200.265,137.279 199.923,135.92 C199.989,135.889 200.055,135.857 200.121,135.825 C200.719,137.609 201.284,139.418 201.824,141.229" fill="#7E5942"/>
    <path d="M222.359,178.795 C220.937,176.632 219.377,174.136 217.761,171.447 C218.758,170.86 220.013,170.215 221.267,169.651 C221.312,169.719 221.357,169.786 221.402,169.853 C223.019,172.213 226.388,174.068 230.323,175.851 L222.359,178.795 M212.981,163.224 C208.546,155.345 204.286,147.081 201.824,141.229 C201.284,139.418 200.719,137.609 200.121,135.825 C201.138,135.329 202.257,134.717 203.545,134.013 C205.228,133.096 206.927,132.198 208.64,131.36 C210.587,136.972 212.172,142.763 213.661,148.188 C214.906,152.733 216.113,157.149 217.403,160.971 C215.837,161.657 214.315,162.435 212.981,163.224" fill="#BFA781"/>
    <path d="M239.277,172.542 C236.453,168.44 234.012,167.539 231.707,167.539 C230.797,167.539 229.908,167.68 229.024,167.819 C227.911,167.998 226.917,168.131 226.056,168.131 C225.059,168.131 223.164,168.798 221.267,169.651 C220.013,170.215 218.758,170.86 217.761,171.447 C216.195,168.842 214.577,166.058 212.981,163.224 C214.315,162.435 215.837,161.657 217.403,160.971 C220.484,159.622 223.735,158.631 226.056,158.631 C226.494,158.631 226.983,158.527 227.54,158.446 C228.698,158.259 230.166,158.025 231.842,158.025 C236.449,158.025 242.641,159.792 248.377,169.179 L239.277,172.542" fill="#BFA781"/>
    <path d="M183.328,169.162 L169.273,139.011 C174.405,140.198 178.175,142.424 181.324,147.996 C184.882,154.286 184.489,161.695 183.328,169.162 M258.682,142.135 C257.599,137.142 255.244,130.591 246.629,124.134 C242.325,120.898 237.99,118.961 233.752,117.944 C237.353,116.518 241.208,114.423 245.337,111.525 C250.129,115.844 254.739,120.829 259.441,125.94 C258.227,131.271 257.984,136.727 258.682,142.135 M263.018,115.807 C259.731,112.28 256.387,108.802 252.902,105.567 C255.227,103.538 257.254,101.571 259.031,99.715 L275.946,94.098 L277.394,97.806 C270.952,103.189 266.181,109.306 263.018,115.807" fill="#7E5942"/>
    <path d="M259.441,125.94 C254.739,120.829 250.129,115.844 245.337,111.525 C246.536,110.683 247.758,109.774 249.004,108.793 C250.39,107.705 251.687,106.627 252.902,105.567 C256.387,108.802 259.731,112.28 263.018,115.807 C261.416,119.101 260.225,122.495 259.441,125.94" fill="#BFA781"/>
    <path d="M213.405,182.104 C212.488,180.708 211.544,179.233 210.585,177.698 C208.966,175.106 207.306,172.343 205.665,169.507 C197.347,155.122 189.537,138.823 190.223,133.137 C190.542,130.517 192.145,128.565 194.505,127.919 C194.92,127.806 195.738,127.409 196.687,126.913 C197.417,126.532 198.226,126.092 198.988,125.678 C200.709,124.735 202.774,123.609 205.115,122.486 C207.639,121.275 210.484,120.069 213.565,119.102 C211.65,118.465 209.838,117.622 208.121,116.62 L259.031,99.715 C257.254,101.571 255.227,103.538 252.902,105.567 C251.687,106.627 250.39,107.705 249.004,108.793 C247.758,109.774 246.536,110.683 245.337,111.525 C241.208,114.423 237.353,116.518 233.752,117.944 C237.99,118.961 242.325,120.898 246.629,124.134 C255.244,130.591 257.599,137.142 258.682,142.135 C259.469,148.235 261.452,154.272 264.592,160.006 C254.087,158.921 251.288,154.462 249.835,146.43 C249.012,141.873 248.165,137.152 240.937,131.727 C235.906,127.958 230.913,126.494 225.991,126.494 C220.086,126.494 214.285,128.601 208.64,131.36 C206.927,132.198 205.228,133.096 203.545,134.013 C202.257,134.717 201.138,135.329 200.121,135.825 C200.055,135.857 199.989,135.889 199.923,135.92 C200.265,137.279 200.924,139.092 201.824,141.229 C204.286,147.081 208.546,155.345 212.981,163.224 C214.577,166.058 216.195,168.842 217.761,171.447 C219.377,174.136 220.937,176.632 222.359,178.795 L213.405,182.104" fill="#BFA781"/>
    <path d="M192.895,189.685 L192.82,189.524 C192.891,189.559 192.965,189.595 193.04,189.631 L192.895,189.685 M190.431,184.399 L183.328,169.162 C184.489,161.695 184.882,154.286 181.324,147.996 C178.175,142.424 174.405,140.198 169.273,139.011 L165.441,130.792 L169.635,129.399 C177.334,130.873 184.33,133.994 189.6,143.32 C195.737,154.186 193.593,166.038 191.7,176.488 C191.368,178.325 191.045,180.11 190.783,181.818 C190.647,182.7 190.527,183.562 190.431,184.399" fill="#BFA781"/>
    <path d="M450.196,159.952 L419.321,133.649 L410.749,134.792 L383.867,93.052 C383.867,93.052 415.9,111.918 421.043,118.783 C426.187,125.641 450.196,159.952 450.196,159.952" fill="#B79272"/>
    <path d="M292.177,121.596 L122.424,161.11 L95.201,44.134 L264.954,4.627 L292.177,121.596" fill="#333433"/>
    <path d="M337.228,176.971 C307.726,194.093 279.07,184.979 265.273,161.214 C251.483,137.449 257.784,108.051 287.279,90.921 C316.781,73.799 358.395,76.753 372.096,99.219 C385.789,121.67 366.723,159.849 337.228,176.971" fill="#674731"/>
    <path d="M336.375,174.826 C308.231,191.161 280.896,182.47 267.729,159.789 C254.571,137.122 260.582,109.068 288.733,92.732 C316.87,76.397 356.569,79.21 369.64,100.637 C382.702,122.063 364.519,158.483 336.375,174.826" fill="#F8E0CF"/>
    <path d="M322.058,167.931 C305.396,177.602 284.058,171.938 274.387,155.276 C264.716,138.614 270.379,117.276 287.042,107.599 C303.704,97.935 325.042,103.598 334.712,120.26 C344.383,136.915 338.72,158.26 322.058,167.931" fill="#E5914E"/>
    <path d="M313.308,163.099 C301.009,170.231 295.235,161.578 288.103,149.287 C280.97,136.997 275.174,125.715 287.464,118.575 C299.755,111.443 317.486,114.478 324.626,126.762 C331.758,139.06 325.598,155.959 313.308,163.099" fill="#BE502E"/>
    <path d="M303.251,184.534 C303.251,184.534 393.59,143.943 421.043,139.943 L434.188,153.087 L310.108,199.399 L303.251,184.534" fill="#DAAB65"/>
    <path d="M345.917,169.834 C356.559,165.474 386.376,153.354 392.454,151.952 L396.137,157.644 C379.569,161.208 361.227,165.809 345.917,169.834" fill="#EBCC93"/>
    <path d="M320.091,185.84 C320.091,185.84 415.328,158.646 443.064,158.624 L454.197,173.519 L324.752,201.544 L320.091,185.84" fill="#DAAB65"/>
    <path d="M362.537,192.007 L361.47,185.03 L416.13,173.11 L417.882,176.926 L362.537,192.007" fill="#EBCC93"/>
    <path d="M313.508,195.295 C313.508,195.295 412.256,187.577 439.435,193.084 L447.376,209.894 L314.948,211.608 L313.508,195.295" fill="#DAAB65"/>
    <path d="M411.073,205.803 C394.444,202.049 376.069,198.511 360.905,195.758 C371.042,195.316 390.831,194.519 401.776,194.519 C404.838,194.519 407.205,194.582 408.478,194.731 L411.073,205.803" fill="#EBCC93"/>
    <path d="M316.12,202.22 C316.12,202.22 413.926,217.835 439.064,229.547 L442.849,247.753 L313.701,218.415 L316.12,202.22" fill="#DAAB65"/>
    <path d="M408.508,235.485 L351.968,225.747 L355.687,213.086 L408.574,225.101 L408.508,235.485" fill="#EBCC93"/>
    <path d="M328.7,190.211 C328.7,190.211 426.506,205.827 451.644,217.538 L455.429,235.745 L326.281,206.406 L328.7,190.211" fill="#DAAB65"/>
    <path d="M421.088,223.469 L364.548,213.739 L368.422,200.55 C368.422,200.55 414,209.256 421.162,211.891 L421.088,223.469" fill="#EBCC93"/>
    <path d="M312.098,179.079 C312.098,179.079 407.29,151.736 435.026,151.677 L446.181,166.558 L316.773,194.776 L312.098,179.079" fill="#DAAB65"/>
    <path d="M354.543,185.179 L352.45,171.59 C352.45,171.59 397.419,160.138 405.02,159.492 L409.866,170.009 L354.543,185.179" fill="#EBCC93"/>
    <path d="M92.833,123.296 C92.833,123.296 94.83,112.831 103.795,107.346 C112.776,101.869 142.679,87.916 157.129,92.398 C171.579,96.881 207.969,119.815 216.444,129.278 C224.913,138.755 234.391,173.638 233.886,190.085 C233.389,206.54 235.882,230.965 219.436,238.936 C202.989,246.915 168.588,248.903 155.637,240.933 C142.686,232.961 115.262,211.022 107.291,193.573 C99.313,176.132 91.341,136.751 92.833,123.296" fill="#4D2D27"/>
    <path d="M95.817,125.218 C95.817,125.218 97.724,115.198 106.319,109.951 C114.913,104.696 143.547,91.337 157.389,95.634 C171.23,99.924 206.083,121.886 214.188,130.955 C222.3,140.024 231.377,173.431 230.895,189.187 C230.42,204.937 232.81,228.33 217.061,235.967 C201.304,243.597 168.366,245.504 155.956,237.874 C143.554,230.237 117.303,209.233 109.659,192.527 C102.021,175.82 94.384,138.11 95.817,125.218" fill="#EACDC6"/>
    <path d="M117.251,103.858 C117.251,103.858 106.786,113.328 106.786,118.315 C106.786,123.296 115.262,175.13 135.694,186.1 C156.134,197.069 204.48,214.013 217.439,205.04 C230.397,196.075 230.895,185.61 230.895,183.108 C230.895,180.615 224.92,137.753 211.457,127.786 C198.001,117.818 163.111,93.89 150.649,94.395 C138.188,94.892 117.251,103.858 117.251,103.858" fill="#D69B9B"/>
    <path d="M135.205,102.863 C135.205,102.863 125.229,106.849 124.732,115.822 C124.235,124.795 131.709,155.195 141.179,163.671 C150.657,172.146 196.435,188.526 207.472,184.11 C227.407,176.132 218.938,151.209 218.938,151.209 C218.938,151.209 208.466,167.664 202.989,166.662 C197.504,165.667 160.617,158.193 151.147,146.229 C141.677,134.258 137.194,115.325 140.682,112.831 C144.17,110.337 168.091,114.33 168.091,114.33 C168.091,114.33 147.659,98.38 135.205,102.863" fill="#EACDC6"/>
    <path d="M160.12,124.298 C160.12,124.298 171.587,116.824 178.066,117.818 C184.545,118.813 213.951,133.263 214.945,139.743 C215.947,146.229 211.457,153.703 206.974,155.7 C202.491,157.688 183.046,151.714 183.046,151.714 C183.046,151.714 200.495,152.708 200.992,147.224 C201.489,141.739 201.489,132.269 193.511,129.278 C185.54,126.287 160.12,124.298 160.12,124.298" fill="#EACDC6"/>
    <path d="M107.291,187.599 C107.291,187.599 145.172,211.03 156.632,213.019 C168.091,215.008 196.509,220.493 205.979,217.004 C215.45,213.516 230.397,202.049 230.397,202.049 C230.397,202.049 231.399,217.999 226.909,221.984 C222.427,225.97 195.507,234.95 186.534,233.458 C177.569,231.959 149.158,227.966 140.682,223.483 C132.206,219.001 113.266,201.055 107.291,187.599" fill="#D69B9B"/>
    <path d="M56.362,223.773 C56.362,223.773 54.054,213.375 60.118,204.788 C66.188,196.201 88.128,171.545 103.172,169.95 C118.216,168.339 160.721,174.989 172.24,180.325 C183.766,185.669 206.292,213.961 212.34,229.258 C218.396,244.562 230.353,266.011 218.404,279.845 C206.455,293.68 175.661,309.124 160.61,306.935 C145.558,304.738 111.7,295.446 97.464,282.591 C83.237,269.729 60.318,236.724 56.362,223.773" fill="#4D2D27"/>
    <path d="M59.873,224.359 C59.873,224.359 57.653,214.407 63.465,206.176 C69.276,197.952 90.288,174.343 104.693,172.814 C119.106,171.27 159.801,177.646 170.837,182.76 C181.874,187.874 203.441,214.963 209.238,229.614 C215.034,244.272 226.486,264.801 215.049,278.049 C203.604,291.305 174.11,306.089 159.697,303.996 C145.284,301.895 112.857,292.997 99.224,280.684 C85.597,268.364 63.658,236.761 59.873,224.359" fill="#EACDC6"/>
    <path d="M71.095,196.26 C71.095,196.26 65.239,209.1 67.206,213.672 C69.18,218.244 97.487,262.493 120.591,264.475 C143.695,266.449 194.81,262.872 203.159,249.505 C211.509,236.138 207.82,226.333 206.833,224.04 C205.846,221.747 183.38,184.756 167.074,180.934 C150.769,177.104 109.258,168.948 98.014,174.336 C86.762,179.731 71.095,196.26 71.095,196.26" fill="#D69B9B"/>
    <path d="M87.185,188.237 C87.185,188.237 79.6,195.837 82.702,204.276 C85.797,212.714 104.693,237.674 116.747,241.712 C128.807,245.734 177.324,242.654 185.718,234.23 C200.866,219.016 183.217,199.474 183.217,199.474 C183.217,199.474 180.114,218.733 174.689,219.98 C169.256,221.242 132.429,228.976 118.995,221.747 C105.562,214.503 93.946,198.88 96.166,195.221 C98.377,191.555 121.927,185.743 121.927,185.743 C121.927,185.743 96.856,179.19 87.185,188.237" fill="#EACDC6"/>
    <path d="M118.55,198.056 C118.55,198.056 126.12,186.649 132.466,185.001 C138.804,183.346 171.527,184.979 175.016,190.53 C178.497,196.097 177.331,204.736 174.006,208.335 C170.681,211.942 150.457,214.147 150.457,214.147 C150.457,214.147 166.874,208.157 165.159,202.925 C163.452,197.692 159.697,189.001 151.191,189.402 C142.686,189.818 118.55,198.056 118.55,198.056" fill="#EACDC6"/>
    <path d="M95.097,277.099 C95.097,277.099 139.161,283.616 150.472,280.907 C161.79,278.198 190.052,271.985 197.363,265.031 C204.681,258.069 213.876,241.63 213.876,241.63 C213.876,241.63 221.105,255.88 218.56,261.313 C216.021,266.753 194.862,285.657 186.03,287.831 C177.198,290.013 149.529,297.591 139.97,296.827 C130.41,296.069 105.918,287.089 95.097,277.099" fill="#D69B9B"/>
    <path d="M354.024,254.789 C352.428,259.532 350.632,268.475 348.836,269.826 C346.201,271.8 348.836,263.911 349.497,258.641 C349.675,257.179 350.053,254.878 350.372,252.347 C350.795,252.503 351.188,252.651 351.463,252.718 C352.302,252.926 353.178,253.794 354.024,254.789 z M367.917,259.955 C367.917,259.955 367.955,260.393 367.992,260.942 C366.99,260.444 366.106,260.244 365.253,260.133 C366.797,260.059 367.917,259.955 367.917,259.955 z M414.646,244.821 C414.646,242.847 400.166,235.611 400.166,235.611 L383.711,234.297 L365.29,236.271 L350.149,221.138 L313.953,230.341 C313.953,230.341 323.171,229.028 323.824,234.297 C323.876,234.683 323.943,235.121 324.002,235.544 C319.816,236.888 315.935,238.246 315.935,238.246 C315.935,238.246 312.647,250.083 312.647,252.058 C312.647,252.058 315.935,258.997 319.52,261.996 C317.783,263.102 316.588,263.911 316.588,263.911 C316.588,263.911 313.953,269.826 311.979,273.121 C310.005,276.416 311.979,275.756 315.935,280.365 C319.883,284.966 317.249,287.601 322.518,288.254 C327.788,288.915 325.806,290.236 325.146,302.074 C324.485,313.919 329.094,315.24 336.33,316.554 C343.566,317.868 340.939,316.554 344.227,314.58 C346.431,313.266 351.107,310.698 356.659,307.603 C357.772,307.722 358.744,307.848 359.368,307.997 C362.002,308.657 373.84,304.048 375.814,300.76 C377.514,297.933 383.556,291.706 381.44,288.759 C383.281,285.122 385.233,279.838 386.346,275.756 C388.32,268.512 388.981,273.782 388.981,273.782 C388.981,273.782 388.981,273.782 394.243,277.069 C399.505,280.357 404.114,272.46 406.749,271.147 C409.376,269.833 412.011,259.302 413.985,257.327 C415.959,255.353 414.646,246.796 414.646,244.821" fill="#40663A"/>
    <path d="M326.696,257.157 L322.117,245.148 L330.125,241.147 L330.697,232.568 C335.269,231.425 348.42,227.425 348.42,227.425 L356.429,236.004 L383.303,242.862 L398.169,253.156 L374.152,252.013 C374.152,252.013 369.009,244.577 365.58,246.862 C362.144,249.148 355.286,251.442 355.286,249.148 C355.286,246.862 352.428,239.997 350.706,238.862 C348.992,237.719 354.714,236.004 348.992,237.719 C343.27,239.426 338.126,247.434 338.126,249.148 C338.126,250.87 331.269,266.308 331.269,266.308 L326.696,257.157" fill="#5D9E64"/>
    <path d="M338.126,270.88 L348.992,284.603 L359.857,262.3 L370.723,257.157 L379.295,261.165 C379.295,261.165 391.312,264.022 388.446,264.586 C385.589,265.157 374.152,275.452 374.152,275.452 C374.152,275.452 378.724,281.745 377.009,281.745 C375.295,281.745 367.866,272.594 367.294,276.023 C366.715,279.459 367.294,287.46 367.294,287.46 C367.294,287.46 359.857,293.175 357,293.175 C354.143,293.175 354.135,294.318 351.278,297.183 C348.42,300.04 342.134,301.755 339.848,297.183 C337.555,292.611 338.126,270.88 338.126,270.88" fill="#5D9E64"/>
    <path d="M269.177,210.095 C268.524,209.419 267.782,208.84 266.965,208.38 C261.213,205.1 253.265,208.157 249.264,215.201 C245.315,222.125 246.711,230.668 252.433,233.904 C258.185,237.177 266.126,234.119 270.134,227.076 C273.519,221.145 273.125,214.162 269.177,210.095 z M246.808,235.492 C241.404,229.926 240.714,220.611 245.13,212.848 C250.437,203.534 261.28,199.674 269.318,204.246 C270.513,204.937 271.619,205.782 272.583,206.784 C277.994,212.358 278.685,221.665 274.261,229.429 C268.954,238.743 258.111,242.603 250.081,238.03 C248.878,237.348 247.78,236.494 246.808,235.492" fill="#DCE5D9"/>
    <path d="M243.698,170.358 C242.755,170.358 241.827,170.484 240.922,170.751 C234.569,172.599 231.229,180.422 233.493,188.207 C235.719,195.859 242.822,200.802 249.13,198.954 C255.483,197.106 258.809,189.276 256.552,181.498 C254.652,174.93 249.36,170.358 243.698,170.358 z M246.354,204.098 C238.591,204.098 231.422,198.108 228.928,189.528 C225.944,179.234 230.724,168.77 239.601,166.187 C240.929,165.801 242.31,165.608 243.698,165.608 C251.461,165.608 258.63,171.59 261.117,180.169 C264.108,190.464 259.321,200.936 250.452,203.519 C249.123,203.905 247.743,204.098 246.354,204.098" fill="#DCE5D9"/>
    <path d="M283.665,171.516 C283.004,170.84 282.262,170.261 281.445,169.801 C275.701,166.52 267.752,169.586 263.751,176.629 C259.803,183.554 261.198,192.089 266.921,195.332 C272.665,198.605 280.606,195.54 284.614,188.504 C288.006,182.567 287.605,175.583 283.665,171.516 z M261.295,196.921 C255.892,191.347 255.202,182.032 259.618,174.276 C264.924,164.962 275.768,161.103 283.798,165.667 C285,166.365 286.099,167.211 287.071,168.213 C292.481,173.787 293.172,183.094 288.749,190.857 C283.442,200.164 272.591,204.023 264.568,199.459 C263.366,198.769 262.267,197.915 261.295,196.921" fill="#DCE5D9"/>
    <path d="M268.175,193.024 C267.522,192.349 266.78,191.77 265.963,191.31 C260.211,188.029 252.27,191.087 248.262,198.13 C244.321,205.055 245.716,213.598 251.438,216.833 C257.183,220.106 265.125,217.049 269.132,210.005 C272.517,204.075 272.124,197.091 268.175,193.024 z M245.813,218.422 C240.402,212.855 239.712,203.541 244.128,195.778 C249.435,186.463 260.286,182.604 268.316,187.176 C269.519,187.866 270.617,188.712 271.589,189.714 C276.992,195.288 277.69,204.595 273.267,212.358 C267.96,221.673 257.109,225.532 249.086,220.96 C247.876,220.277 246.778,219.424 245.813,218.422" fill="#DCE5D9"/>
    <path d="M284.184,191.881 C283.531,191.198 282.789,190.62 281.972,190.159 C276.22,186.879 268.279,189.944 264.271,196.987 C260.33,203.912 261.726,212.455 267.448,215.69 C273.192,218.964 281.134,215.898 285.142,208.862 C288.526,202.925 288.132,195.941 284.184,191.881 z M261.822,217.279 C256.411,211.712 255.721,202.391 260.137,194.635 C265.444,185.32 276.294,181.461 284.325,186.033 C285.527,186.723 286.626,187.569 287.598,188.571 C293.001,194.145 293.691,203.452 289.275,211.215 C283.969,220.53 273.118,224.389 265.095,219.817 C263.885,219.134 262.787,218.273 261.822,217.279" fill="#DCE5D9"/>
    <path d="M235.43,189.024 C234.487,189.031 233.56,189.18 232.661,189.454 C226.331,191.392 223.109,199.273 225.484,207.022 C227.822,214.637 234.992,219.476 241.271,217.539 C247.594,215.602 250.815,207.727 248.44,199.978 C246.451,193.447 241.093,188.935 235.43,189.024 z M238.569,222.727 C230.806,222.838 223.555,216.952 220.935,208.41 C217.803,198.16 222.434,187.621 231.266,184.912 C232.595,184.511 233.968,184.296 235.363,184.274 C243.126,184.163 250.377,190.048 252.99,198.583 C256.129,208.84 251.491,219.379 242.659,222.081 C241.337,222.489 239.957,222.704 238.569,222.727" fill="#DCE5D9"/>
    <path d="M251.438,148.426 C250.496,148.434 249.576,148.582 248.678,148.856 C242.347,150.794 239.118,158.676 241.493,166.424 C243.831,174.039 251.008,178.878 257.28,176.941 C263.61,175.004 266.824,167.129 264.449,159.381 C262.46,152.85 257.102,148.337 251.438,148.426 z M254.578,182.129 C246.822,182.24 239.571,176.354 236.951,167.812 C233.812,157.562 238.45,147.023 247.282,144.314 C248.611,143.914 249.977,143.698 251.379,143.676 C259.135,143.565 266.386,149.45 269.006,157.985 C272.138,168.243 267.507,178.782 258.675,181.483 C257.347,181.892 255.974,182.106 254.578,182.129" fill="#DCE5D9"/>
    <path d="M230.249,162.067 C224.534,162.067 219.881,168.821 219.881,177.126 C219.881,185.439 224.534,192.193 230.249,192.193 C235.972,192.193 240.625,185.439 240.625,177.126 C240.625,168.821 235.972,162.067 230.249,162.067 z M230.249,196.943 C221.915,196.943 215.131,188.059 215.131,177.126 C215.131,166.202 221.915,157.317 230.249,157.317 C238.591,157.317 245.375,166.202 245.375,177.126 C245.375,188.059 238.591,196.943 230.249,196.943" fill="#8CC793"/>
    <path d="M282.284,195.228 C276.562,195.228 271.916,201.99 271.916,210.288 C271.916,218.6 276.562,225.354 282.284,225.354 C288.006,225.354 292.652,218.6 292.652,210.288 C292.652,201.99 288.006,195.228 282.284,195.228 z M282.284,230.104 C273.942,230.104 267.166,221.22 267.166,210.288 C267.166,199.362 273.942,190.478 282.284,190.478 C290.626,190.478 297.402,199.362 297.402,210.288 C297.402,221.22 290.626,230.104 282.284,230.104" fill="#8CC793"/>
    <path d="M263.462,214.525 C258.779,211.252 251.09,214.124 246.333,220.938 C241.583,227.744 241.523,235.952 246.214,239.226 C250.897,242.499 258.586,239.626 263.336,232.813 C268.093,226.007 268.153,217.798 263.462,214.525 z M243.49,243.122 C236.654,238.342 236.187,227.172 242.443,218.214 C248.692,209.263 259.343,205.856 266.186,210.629 C273.021,215.409 273.489,226.579 267.24,235.537 C260.976,244.487 250.325,247.894 243.49,243.122" fill="#8CC793"/>
    <path d="M214.359,215.958 C209.78,219.379 210.106,227.581 215.086,234.23 C220.059,240.88 227.837,243.5 232.417,240.071 C236.988,236.65 236.669,228.449 231.689,221.799 C226.716,215.149 218.938,212.529 214.359,215.958 z M235.259,243.879 C228.579,248.881 217.825,245.823 211.279,237.081 C204.733,228.33 204.837,217.153 211.509,212.158 C218.188,207.155 228.95,210.206 235.497,218.956 C242.035,227.699 241.938,238.884 235.259,243.879" fill="#8CC793"/>
    <path d="M247.06,205.255 C246.407,204.58 245.665,204.001 244.848,203.541 C239.096,200.261 231.155,203.326 227.147,210.362 C223.206,217.286 224.601,225.829 230.323,229.065 C236.068,232.345 244.009,229.28 248.017,222.237 C251.401,216.307 251.008,209.323 247.06,205.255 z M224.698,230.661 C219.294,225.087 218.597,215.772 223.013,208.009 C228.319,198.694 239.17,194.835 247.201,199.407 C248.403,200.097 249.501,200.951 250.474,201.945 C255.884,207.519 256.575,216.833 252.151,224.589 C246.845,233.904 235.994,237.763 227.971,233.191 C226.761,232.509 225.663,231.655 224.698,230.661" fill="#DCE5D9"/>
    <path d="M283.078,180.674 C282.425,179.991 281.683,179.413 280.866,178.952 C275.114,175.672 267.173,178.737 263.165,185.78 C259.224,192.705 260.62,201.248 266.342,204.483 C272.086,207.757 280.028,204.691 284.036,197.655 C287.427,191.718 287.026,184.734 283.078,180.674 z M260.716,206.072 C255.313,200.505 254.623,191.184 259.031,183.428 C264.345,174.113 275.188,170.254 283.219,174.826 C284.421,175.516 285.52,176.362 286.492,177.364 C291.903,182.938 292.593,192.245 288.169,200.008 C282.863,209.323 272.012,213.182 263.989,208.61 C262.787,207.927 261.681,207.066 260.716,206.072" fill="#DCE5D9"/>
    <path d="M308.81,177.238 C308.157,176.562 307.415,175.983 306.598,175.523 C300.846,172.243 292.905,175.301 288.897,182.344 C284.956,189.269 286.351,197.812 292.073,201.047 C297.818,204.32 305.759,201.263 309.767,194.219 C313.151,188.289 312.758,181.305 308.81,177.238 z M286.448,202.643 C281.044,197.069 280.347,187.755 284.763,179.991 C290.069,170.677 300.92,166.817 308.951,171.39 C310.153,172.08 311.251,172.926 312.224,173.935 C317.634,179.501 318.325,188.809 313.901,196.572 C308.595,205.886 297.744,209.746 289.721,205.181 C288.511,204.491 287.413,203.638 286.448,202.643" fill="#DCE5D9"/>
    <path d="M292.801,168.087 C292.147,167.411 291.405,166.832 290.589,166.372 C284.837,163.092 276.888,166.149 272.888,173.193 C268.947,180.118 270.342,188.66 276.057,191.896 C281.809,195.169 289.75,192.111 293.758,185.068 C297.143,179.138 296.749,172.154 292.801,168.087 z M270.431,193.484 C265.028,187.918 264.338,178.603 268.754,170.84 C274.061,161.526 284.904,157.666 292.942,162.238 C294.137,162.929 295.243,163.774 296.208,164.776 C301.618,170.351 302.308,179.657 297.892,187.421 C292.578,196.735 281.735,200.595 273.704,196.022 C272.502,195.34 271.403,194.486 270.431,193.484" fill="#DCE5D9"/>
    <path d="M241.353,185.817 C240.699,185.142 239.957,184.556 239.141,184.103 C233.389,180.823 225.44,183.88 221.439,190.924 C217.499,197.849 218.894,206.391 224.608,209.627 C230.36,212.9 238.302,209.842 242.31,202.799 C245.694,196.869 245.301,189.877 241.353,185.817 z M218.983,211.215 C213.58,205.649 212.89,196.334 217.306,188.571 C222.612,179.257 233.456,175.397 241.493,179.969 C242.696,180.659 243.794,181.505 244.759,182.507 C250.169,188.081 250.86,197.388 246.444,205.151 C241.137,214.466 230.286,218.325 222.263,213.753 C221.054,213.071 219.955,212.217 218.983,211.215" fill="#DCE5D9"/>
    <path d="M227.629,184.675 C226.976,183.999 226.234,183.42 225.417,182.96 C219.666,179.68 211.724,182.737 207.716,189.781 C203.775,196.706 205.171,205.248 210.893,208.484 C216.638,211.757 224.579,208.699 228.587,201.656 C231.971,195.726 231.578,188.734 227.629,184.675 z M205.267,210.08 C199.856,204.506 199.167,195.191 203.583,187.428 C208.889,178.114 219.74,174.254 227.771,178.826 C228.973,179.517 230.071,180.362 231.043,181.364 C236.446,186.938 237.137,196.245 232.721,204.009 C227.414,213.323 216.563,217.183 208.54,212.61 C207.331,211.928 206.232,211.074 205.267,210.08" fill="#DCE5D9"/>
    <path d="M254.504,152.657 C253.851,151.974 253.108,151.395 252.292,150.935 C246.54,147.662 238.591,150.72 234.591,157.763 C230.65,164.687 232.045,173.223 237.76,176.466 C243.512,179.739 251.454,176.681 255.461,169.638 C258.846,163.7 258.452,156.716 254.504,152.657 z M232.134,178.054 C226.731,172.48 226.041,163.173 230.457,155.41 C235.764,146.096 246.607,142.236 254.645,146.801 C255.84,147.499 256.946,148.345 257.911,149.347 C263.321,154.92 264.011,164.228 259.595,171.991 C254.281,181.305 243.438,185.165 235.407,180.593 C234.205,179.902 233.106,179.056 232.134,178.054" fill="#DCE5D9"/>
    <path d="M264.857,191.51 C263.915,191.51 262.979,191.644 262.082,191.903 C255.721,193.751 252.389,201.582 254.652,209.36 C256.879,217.012 263.981,221.962 270.283,220.106 C276.636,218.266 279.968,210.436 277.712,202.658 C275.805,196.089 270.521,191.51 264.857,191.51 z M267.507,225.25 C259.744,225.25 252.582,219.268 250.088,210.688 C247.097,200.394 251.884,189.922 260.753,187.339 C262.089,186.953 263.462,186.76 264.857,186.76 C272.621,186.76 279.783,192.749 282.276,201.329 C285.26,211.624 280.48,222.096 271.611,224.671 C270.283,225.057 268.902,225.25 267.507,225.25" fill="#DCE5D9"/>
    <path d="M304.817,192.675 C304.164,192 303.421,191.421 302.605,190.961 C296.853,187.681 288.912,190.738 284.904,197.782 C280.963,204.706 282.358,213.249 288.081,216.485 C293.825,219.758 301.767,216.7 305.774,209.657 C309.159,203.727 308.765,196.743 304.817,192.675 z M282.455,218.081 C277.044,212.507 276.354,203.192 280.77,195.429 C286.077,186.114 296.927,182.255 304.958,186.827 C306.16,187.517 307.259,188.363 308.231,189.373 C313.634,194.939 314.324,204.246 309.908,212.009 C304.602,221.324 293.751,225.183 285.728,220.619 C284.518,219.929 283.419,219.075 282.455,218.081" fill="#DCE5D9"/>
    <path d="M289.335,214.184 C288.682,213.501 287.939,212.922 287.123,212.462 C281.371,209.189 273.422,212.247 269.422,219.29 C265.481,226.215 266.876,234.75 272.591,237.993 C278.343,241.267 286.284,238.208 290.292,231.165 C293.677,225.228 293.283,218.244 289.335,214.184 z M266.965,239.582 C261.562,234.008 260.872,224.701 265.288,216.937 C270.595,207.623 281.438,203.764 289.476,208.328 C290.678,209.026 291.776,209.872 292.741,210.874 C298.152,216.448 298.842,225.755 294.426,233.518 C289.12,242.832 278.269,246.692 270.238,242.12 C269.036,241.43 267.938,240.583 266.965,239.582" fill="#DCE5D9"/>
    <path d="M305.344,213.034 C304.69,212.358 303.948,211.779 303.132,211.319 C297.38,208.039 289.431,211.104 285.431,218.14 C281.49,225.072 282.885,233.607 288.6,236.843 C294.352,240.124 302.293,237.058 306.301,230.015 C309.686,224.085 309.292,217.101 305.344,213.034 z M282.974,238.438 C277.571,232.865 276.881,223.55 281.297,215.794 C286.604,206.473 297.447,202.613 305.485,207.185 C306.68,207.875 307.786,208.729 308.75,209.731 C314.161,215.297 314.851,224.612 310.435,232.368 C305.121,241.682 294.278,245.541 286.247,240.977 C285.045,240.287 283.946,239.433 282.974,238.438" fill="#DCE5D9"/>
    <path d="M256.582,210.184 C255.647,210.191 254.719,210.332 253.821,210.614 C247.49,212.551 244.262,220.426 246.637,228.174 C248.982,235.789 256.151,240.636 262.423,238.698 C268.754,236.761 271.975,228.879 269.6,221.138 C267.611,214.607 262.252,210.095 256.582,210.184 z M259.729,243.879 C251.966,243.998 244.714,238.104 242.095,229.569 C238.962,219.312 243.594,208.773 252.426,206.072 C253.754,205.671 255.127,205.448 256.522,205.434 C264.278,205.315 271.53,211.2 274.149,219.743 C277.282,229.993 272.65,240.532 263.818,243.241 C262.49,243.649 261.117,243.856 259.729,243.879" fill="#DCE5D9"/>
    <path d="M272.599,169.586 C271.656,169.593 270.728,169.734 269.837,170.017 C263.499,171.954 260.278,179.828 262.653,187.577 C264.991,195.191 272.161,200.038 278.439,198.101 C284.763,196.164 287.984,188.282 285.609,180.541 C283.62,174.009 278.261,169.497 272.599,169.586 z M275.738,203.281 C267.982,203.4 260.731,197.507 258.111,188.972 C254.972,178.715 259.603,168.176 268.435,165.474 C269.763,165.073 271.136,164.851 272.532,164.836 C280.295,164.717 287.546,170.603 290.159,179.145 C293.298,189.395 288.659,199.934 279.827,202.643 C278.506,203.051 277.133,203.259 275.738,203.281" fill="#DCE5D9"/>
    <path d="M251.409,183.22 C245.687,183.22 241.041,189.981 241.041,198.286 C241.041,206.591 245.687,213.353 251.409,213.353 C257.131,213.353 261.777,206.591 261.777,198.286 C261.777,189.981 257.131,183.22 251.409,183.22 z M251.409,218.103 C243.067,218.103 236.291,209.211 236.291,198.286 C236.291,187.361 243.067,178.47 251.409,178.47 C259.751,178.47 266.527,187.361 266.527,198.286 C266.527,209.211 259.751,218.103 251.409,218.103" fill="#8CC793"/>
    <path d="M303.444,216.388 C297.722,216.388 293.068,223.142 293.068,231.447 C293.068,239.752 297.722,246.514 303.444,246.514 C309.159,246.514 313.812,239.752 313.812,231.447 C313.812,223.142 309.159,216.388 303.444,216.388 z M303.444,251.264 C295.102,251.264 288.318,242.372 288.318,231.447 C288.318,220.522 295.102,211.638 303.444,211.638 C311.778,211.638 318.562,220.522 318.562,231.447 C318.562,242.372 311.778,251.264 303.444,251.264" fill="#8CC793"/>
    <path d="M284.614,235.685 C279.931,232.405 272.242,235.284 267.492,242.09 C262.735,248.903 262.683,257.104 267.374,260.385 C272.057,263.658 279.738,260.778 284.496,253.965 C289.253,247.159 289.305,238.958 284.614,235.685 z M264.649,264.282 C257.814,259.502 257.339,248.332 263.603,239.374 C269.853,230.416 280.503,227.009 287.338,231.781 C294.181,236.561 294.649,247.731 288.392,256.689 C282.136,265.647 271.485,269.054 264.649,264.282" fill="#8CC793"/>
    <path d="M235.519,237.118 C230.939,240.539 231.266,248.74 236.239,255.383 C241.219,262.04 248.989,264.66 253.569,261.231 C258.148,257.81 257.821,249.608 252.849,242.958 C247.869,236.309 240.098,233.688 235.519,237.118 z M256.419,265.031 C249.739,270.034 238.985,266.983 232.438,258.233 C225.893,249.49 225.997,238.305 232.669,233.31 C239.349,228.308 250.103,231.366 256.649,240.108 C263.195,248.859 263.091,260.036 256.419,265.031" fill="#8CC793"/>
    <path d="M268.22,226.415 C267.566,225.74 266.824,225.153 266.008,224.701 C260.256,221.42 252.307,224.478 248.307,231.521 C244.366,238.446 245.761,246.989 251.476,250.225 C257.228,253.498 265.169,250.44 269.177,243.396 C272.562,237.466 272.168,230.475 268.22,226.415 z M245.85,251.813 C240.447,246.247 239.757,236.932 244.173,229.169 C249.479,219.854 260.323,215.995 268.36,220.567 C269.563,221.257 270.661,222.103 271.626,223.105 C277.037,228.679 277.727,237.986 273.311,245.749 C268.004,255.063 257.153,258.923 249.13,254.351 C247.921,253.668 246.822,252.815 245.85,251.813" fill="#DCE5D9"/>
    <path d="M304.238,201.827 C303.585,201.151 302.843,200.572 302.026,200.112 C296.274,196.832 288.325,199.897 284.325,206.933 C280.384,213.865 281.779,222.4 287.501,225.636 C293.246,228.916 301.188,225.851 305.195,218.808 C308.58,212.878 308.187,205.894 304.238,201.827 z M281.868,227.231 C276.465,221.658 275.775,212.343 280.191,204.587 C285.498,195.266 296.341,191.406 304.379,195.978 C305.581,196.668 306.68,197.522 307.645,198.524 C313.055,204.09 313.745,213.405 309.329,221.161 C304.022,230.475 293.172,234.334 285.149,229.77 C283.939,229.08 282.841,228.226 281.868,227.231" fill="#DCE5D9"/>
    <path d="M329.97,198.397 C329.316,197.715 328.574,197.136 327.758,196.676 C322.006,193.403 314.057,196.46 310.057,203.504 C306.116,210.429 307.511,218.971 313.226,222.207 C318.978,225.48 326.919,222.422 330.927,215.379 C334.312,209.441 333.918,202.457 329.97,198.397 z M307.6,223.795 C302.197,218.229 301.507,208.915 305.923,201.151 C311.229,191.837 322.073,187.978 330.11,192.549 C331.313,193.239 332.411,194.085 333.376,195.087 C338.787,200.661 339.477,209.968 335.061,217.731 C329.754,227.046 318.903,230.905 310.88,226.333 C309.671,225.651 308.572,224.797 307.6,223.795" fill="#DCE5D9"/>
    <path d="M313.953,189.247 C313.3,188.563 312.558,187.985 311.741,187.524 C305.989,184.251 298.048,187.31 294.04,194.353 C290.099,201.277 291.495,209.812 297.217,213.056 C302.961,216.329 310.903,213.271 314.911,206.228 C318.302,200.29 317.901,193.306 313.953,189.247 z M291.591,214.644 C286.188,209.07 285.498,199.763 289.906,192 C295.22,182.686 306.063,178.826 314.094,183.391 C315.296,184.088 316.395,184.935 317.367,185.937 C322.778,191.51 323.468,200.817 319.044,208.581 C313.738,217.895 302.887,221.754 294.864,217.183 C293.662,216.492 292.556,215.646 291.591,214.644" fill="#DCE5D9"/>
    <path d="M262.512,206.97 C261.852,206.294 261.109,205.716 260.293,205.255 C254.548,201.975 246.6,205.04 242.599,212.083 C238.651,219.008 240.046,227.543 245.769,230.787 C251.513,234.06 259.454,230.995 263.462,223.958 C266.854,218.021 266.453,211.037 262.512,206.97 z M240.143,232.375 C234.739,226.801 234.049,217.487 238.465,209.731 C243.772,200.416 254.615,196.557 262.646,201.122 C263.848,201.812 264.946,202.665 265.919,203.667 C271.329,209.233 272.02,218.548 267.596,226.304 C262.29,235.618 251.438,239.478 243.416,234.913 C242.213,234.223 241.115,233.37 240.143,232.375" fill="#DCE5D9"/>
    <path d="M248.789,205.834 C248.136,205.151 247.394,204.573 246.577,204.112 C240.825,200.832 232.876,203.897 228.876,210.94 C224.935,217.865 226.331,226.408 232.045,229.644 C237.797,232.917 245.739,229.852 249.747,222.815 C253.131,216.878 252.737,209.894 248.789,205.834 z M226.419,231.232 C221.017,225.666 220.326,216.344 224.742,208.588 C230.049,199.273 240.892,195.414 248.93,199.986 C250.125,200.676 251.231,201.522 252.196,202.524 C257.606,208.098 258.296,217.405 253.88,225.168 C248.566,234.483 237.723,238.342 229.692,233.77 C228.49,233.087 227.392,232.227 226.419,231.232" fill="#DCE5D9"/>
    <path d="M275.656,173.809 C275.003,173.134 274.261,172.555 273.444,172.095 C267.692,168.814 259.751,171.879 255.743,178.915 C251.802,185.84 253.198,194.382 258.92,197.618 C264.665,200.899 272.606,197.833 276.614,190.79 C280.005,184.86 279.604,177.876 275.656,173.809 z M253.294,199.214 C247.891,193.64 247.201,184.326 251.609,176.562 C256.923,167.255 267.767,163.396 275.797,167.96 C277,168.651 278.098,169.504 279.07,170.506 C284.481,176.073 285.171,185.387 280.748,193.143 C275.441,202.457 264.59,206.317 256.567,201.752 C255.365,201.062 254.259,200.208 253.294,199.214" fill="#DCE5D9"/>
  </g>
</svg>
